SplineFontDB: 3.0
FontName: StickNoBills
FullName: Stick No Bills
FamilyName: Stick No Bills
OS2StyleName: "regular"
Weight: Regular
Copyright: Copyright (c) 2013 STICK NO BILLS, Copyright (c) 2015 mooniak\n
UComments: "2015-2-15: Created with FontForge (http://fontforge.org) The  Free Font Editor"
Version: 1.0
ItalicAngle: 0
UnderlinePosition: -102
UnderlineWidth: 51
Ascent: 819
Descent: 205
InvalidEm: 0
UFOAscent: 819
UFODescent: -205
LayerCount: 2
Layer: 0 0 "Back" 1
Layer: 1 0 "Fore" 0
PreferredKerning: 4
FSType: 0
OS2Version: 0
OS2_WeightWidthSlopeOnly: 0
OS2_UseTypoMetrics: 0
CreationTime: 1429518268
ModificationTime: 1429728460
PfmFamily: 16
TTFWeight: 400
TTFWidth: 5
LineGap: 94
VLineGap: 0
OS2TypoAscent: 819
OS2TypoAOffset: 0
OS2TypoDescent: -205
OS2TypoDOffset: 0
OS2TypoLinegap: 94
OS2WinAscent: 918
OS2WinAOffset: 0
OS2WinDescent: 205
OS2WinDOffset: 0
HheadAscent: 918
HheadAOffset: 0
HheadDescent: -205
HheadDOffset: 0
OS2CapHeight: 0
OS2XHeight: 0
OS2Vendor: 'PfEd'
OS2UnicodeRanges: 00000002.00000000.00000000.00000000
Lookup: 258 0 0 "'kern' Horizontal Kerning lookup 0" { "'kern' Horizontal Kerning lookup 0-1" [153,15,0] "'kern' Horizontal Kerning lookup 0-2" [153,15,0] } ['kern' ('DFLT' <'dflt' > 'hani' <'dflt' > 'latn' <'dflt' > ) ]
MarkAttachClasses: 1
DEI: 91125
KernClass2: 6 6 "'kern' Horizontal Kerning lookup 0-1"
 1 A
 7 T Y P F
 9 f r v w y
 1 L
 3 W V
 7 W V T Y
 12 period comma
 17 a e s o q d c g u
 1 A
 5 w v t
 0 {} 0 {} 0 {} 0 {} 0 {} 0 {} 0 {} -70 {} 61 {} -23 {} 0 {} -68 {} 0 {} 16 {} -80 {} -30 {} -100 {} -23 {} 0 {} 0 {} -41 {} 0 {} 0 {} 0 {} 0 {} -82 {} 0 {} 84 {} 0 {} -77 {} 0 {} 0 {} -109 {} -55 {} -130 {} 0 {}

StartChar: A
Encoding: 65 65 0
GlifName: A_
Width: 516
VWidth: 0
GlyphClass: 2
Flags: HMW
LayerCount: 2
Back
Fore
SplineSet
323 699 m 1
 462 699 l 1
 490 0 l 1
 353 0 l 1
 348 85 l 1
 254 85 l 1
 308 223 l 1
 344 223 l 1
 323 699 l 1
258 582 m 1
 273 582 l 1
 283 302 l 1
 164 0 l 1
 26 0 l 1
 258 582 l 1
EndSplineSet
Validated: 1
EndChar

StartChar: AE
Encoding: 198 198 1
GlifName: A_E_
Width: 727
VWidth: 0
GlyphClass: 2
Flags: HMW
LayerCount: 2
Back
Fore
SplineSet
726 141 m 1
 701 0 l 1
 337 0 l 1
 363 148 l 1
 298 148 l 1
 348 268 l 1
 384 268 l 1
 436 560 l 1
 419 560 l 1
 182 0 l 1
 26 0 l 1
 329 700 l 1
 824 700 l 1
 800 560 l 1
 582 560 l 1
 577 560 l 1
 552 418 l 1
 681 418 l 1
 656 277 l 1
 527 277 l 1
 503 141 l 1
 726 141 l 1
EndSplineSet
Validated: 1
EndChar

StartChar: Aring
Encoding: 197 197 6
GlifName: A_ring
Width: 516
VWidth: 0
GlyphClass: 2
Flags: HMW
LayerCount: 2
Back
Fore
SplineSet
258 582 m 1
 273 582 l 1
 283 302 l 1
 164 0 l 1
 26 0 l 1
 258 582 l 1
372 765 m 0
 371.669467095 763.016802571 371.508881748 761.082161587 371.508881748 759.209451633 c 0
 371.508881748 744.084973779 381.983197429 733 398 733 c 0
 416 733 433 747 436 765 c 0
 436.330532905 766.983197429 436.491118252 768.917838413 436.491118252 770.790548367 c 0
 436.491118252 785.915026221 426.016802571 797 410 797 c 0
 392 797 375 783 372 765 c 0
308 765 m 0
 317 818 368 861 421 861 c 0
 468.405040098 861 501.409837803 826.599420952 501.409837803 781.411736906 c 0
 501.409837803 776.078479519 500.950087531 770.594959902 500 765 c 0
 495 739 481 716 462 699 c 1
 490 0 l 1
 353 0 l 1
 348 85 l 1
 254 85 l 1
 308 223 l 1
 344 223 l 1
 323 698 l 1
 312.287059342 711.008570799 306.258490012 728.11596651 306.258490012 747.081857131 c 0
 306.258490012 752.901175088 306.826050235 758.895461222 308 765 c 0
EndSplineSet
Validated: 524289
EndChar

StartChar: B
Encoding: 66 66 8
GlifName: B_
Width: 484
VWidth: 0
GlyphClass: 2
Flags: HMW
LayerCount: 2
Back
Fore
SplineSet
149 700 m 1
 290 700 l 1
 167 0 l 1
 26 0 l 1
 149 700 l 1
243 122 m 1
 330 122 355 179 360 205 c 0
 364 227 362 289 272 289 c 1
 293 411 l 1
 353 411 401 446 410 497 c 0
 419 547 382 576 323 577 c 1
 344 700 l 1
 352 701 361 701 369 701 c 0
 521 701 556 574 545 514 c 1
 544 513 l 1
 527 421 487 378 447 352 c 1
 480 322 508 285 493 201 c 0
 493 199 493 198 493 197 c 0
 472 86 366 -2 249 -2 c 0
 240 -2 230 -1 221 0 c 1
 243 122 l 1
EndSplineSet
Validated: 33
EndChar

StartChar: C
Encoding: 67 67 9
GlifName: C_
Width: 494
VWidth: 0
GlyphClass: 2
Flags: HMW
LayerCount: 2
Back
Fore
SplineSet
353 705 m 1
 328 564 l 1
 282 563 265 523 264 518 c 2
 205 181 l 2
 204 176 207 136 253 136 c 1
 228 -5 l 1
 85 -5 53 121 64 181 c 2
 123 518 l 2
 134 578 210 705 353 705 c 1
307 136 m 1
 307 136 340 143 354 166 c 0
 361 178 364 189 366 203 c 2
 368 215 l 1
 500 182 l 1
 481 76 374 -5 282 -5 c 1
 307 136 l 1
382 564 m 1
 407 705 l 1
 499 705 576 612 559 516 c 1
 415 480 l 1
 417 495 l 2
 419 509 422 520 419 532 c 0
 413 555 382 564 382 564 c 1
EndSplineSet
Validated: 33
EndChar

StartChar: D
Encoding: 68 68 11
GlifName: D_
Width: 452
VWidth: 0
GlyphClass: 2
Flags: HMW
LayerCount: 2
Back
Fore
SplineSet
32 0 m 1
 155 700 l 1
 296 700 l 1
 173 0 l 1
 32 0 l 1
227 0 m 1
 252 141 l 1
 258 141 309 149 318 197 c 2
 372 503 l 2
 373 508 374 558 326 559 c 1
 350 700 l 1
 493 700 524 566 513 503 c 2
 459 197 l 2
 433 50 287 0 227 0 c 1
EndSplineSet
Validated: 33
EndChar

StartChar: E
Encoding: 69 69 12
GlifName: E_
Width: 422
VWidth: 0
GlyphClass: 2
Flags: HMW
LayerCount: 2
Back
Fore
SplineSet
421 141 m 1
 396 0 l 1
 32 0 l 1
 155 700 l 1
 519 700 l 1
 495 560 l 1
 272 560 l 1
 247 418 l 1
 376 418 l 1
 351 277 l 1
 222 277 l 1
 198 141 l 1
 421 141 l 1
EndSplineSet
Validated: 1
EndChar

StartChar: EURO
Encoding: 256 8364 13
GlifName: E_U_R_O_
Width: 567
VWidth: 0
GlyphClass: 2
Flags: HMW
LayerCount: 2
Back
Fore
SplineSet
338 2 m 1
 363 142 l 1
 393 151 410 165 416 199 c 2
 422 237 l 1
 550 186 l 1
 545 156 519 102 475 64 c 0
 430 25 387 3 338 2 c 1
461 698 m 1
 510 697 545 675 576 636 c 0
 606 598 613 544 608 514 c 1
 462 463 l 1
 469 501 l 2
 475 535 462 549 436 558 c 1
 461 698 l 1
401 698 m 1
 376 558 l 1
 334 543 330 532 322 488 c 2
 313 436 l 1
 485 436 l 1
 474 376 l 1
 302 376 l 1
 292 317 l 1
 464 317 l 1
 453 258 l 1
 281 258 l 1
 272 202 l 2
 264 155 281 154 303 141 c 1
 278 2 l 1
 198 8 176 45 150 90 c 0
 134 118 127 149 131 182 c 2
 144 258 l 1
 95 258 l 1
 106 317 l 1
 155 317 l 1
 165 377 l 1
 116 377 l 1
 127 436 l 1
 176 436 l 1
 186 496 l 2
 194 540 207 576 242 613 c 0
 289 666 340 696 401 698 c 1
EndSplineSet
Validated: 33
EndChar

StartChar: Eth
Encoding: 208 208 18
GlifName: E_th
Width: 501
VWidth: 0
GlyphClass: 2
Flags: HMW
LayerCount: 2
Back
Fore
SplineSet
298 420 m 1
 354 420 l 1
 331 292 l 1
 275 292 l 1
 224 0 l 1
 83 0 l 1
 134 292 l 1
 77 292 l 1
 100 420 l 1
 157 420 l 1
 206 700 l 1
 347 700 l 1
 298 420 l 1
278 0 m 1
 303 141 l 1
 309 141 360 149 369 197 c 2
 423 503 l 2
 424 508 425 558 377 559 c 1
 401 700 l 1
 544 700 575 566 564 503 c 2
 510 197 l 2
 484 50 338 0 278 0 c 1
EndSplineSet
Validated: 33
EndChar

StartChar: F
Encoding: 70 70 19
GlifName: F_
Width: 422
VWidth: 0
GlyphClass: 2
Flags: HMW
LayerCount: 2
Back
Fore
SplineSet
376 418 m 1
 351 277 l 1
 222 277 l 1
 173 1 l 1
 32 1 l 1
 155 700 l 1
 519 700 l 1
 495 560 l 1
 272 560 l 1
 247 418 l 1
 376 418 l 1
EndSplineSet
Validated: 1
EndChar

StartChar: G
Encoding: 71 71 20
GlifName: G_
Width: 493
VWidth: 0
GlyphClass: 2
Flags: HMW
LayerCount: 2
Back
Fore
SplineSet
221 -5 m 1
 161 -5 35 48 60 192 c 2
 118 524 l 1
 137 589 214 705 346 705 c 1
 321 564 l 1
 275 563 258 513 257 508 c 2
 201 192 l 2
 194 146 241 136 246 136 c 1
 221 -5 l 1
523 353 m 1
 492 176 l 2
 478 95 357 -4 275 -5 c 1
 300 136 l 1
 306 136 347 155 353 190 c 2
 358 223 l 1
 315 223 l 1
 338 353 l 1
 523 353 l 1
375 564 m 1
 400 705 l 1
 493 705 569 612 552 516 c 1
 405 465 l 1
 410 495 l 2
 412 509 415 520 412 532 c 0
 406 555 375 564 375 564 c 1
EndSplineSet
Validated: 33
EndChar

StartChar: H
Encoding: 72 72 21
GlifName: H_
Width: 458
VWidth: 0
GlyphClass: 2
Flags: HMW
LayerCount: 2
Back
Fore
SplineSet
408 700 m 1
 549 700 l 1
 426 0 l 1
 285 0 l 1
 335 283 l 1
 306 283 l 1
 330 421 l 1
 359 421 l 1
 408 700 l 1
276 421 m 1
 252 283 l 1
 223 283 l 1
 173 0 l 1
 32 0 l 1
 155 700 l 1
 296 700 l 1
 247 421 l 1
 276 421 l 1
EndSplineSet
Validated: 1
EndChar

StartChar: HKD
Encoding: 257 22291 22
GlifName: H_K_D_
Width: 843
VWidth: 0
GlyphClass: 2
Flags: HMW
LayerCount: 2
Back
Fore
SplineSet
249 698 m 1
 292 698 l 1
 255 488 l 1
 212 488 l 1
 227 573 l 1
 218 573 l 1
 225 614 l 1
 234 614 l 1
 249 698 l 1
321 698 m 1
 364 698 l 1
 327 488 l 1
 284 488 l 1
 321 698 l 1
406 698 m 1
 448 698 l 1
 407 611 l 1
 412 488 l 1
 370 488 l 1
 365 611 l 1
 406 698 l 1
209 614 m 1
 202 573 l 1
 193 573 l 1
 178 488 l 1
 136 488 l 1
 173 698 l 1
 215 698 l 1
 200 614 l 1
 209 614 l 1
527 -47 m 1
 456 -47 l 1
 466 13 l 1
 403 45 374 116 380 158 c 1
 515 203 l 1
 507 147 557 127 557 127 c 1
 527 -47 l 1
781 682 m 1
 838 649 863 580 863 553 c 1
 725 510 l 1
 728 557 690 568 690 568 c 1
 722 750 l 1
 793 750 l 1
 781 682 l 1
667 750 m 1
 635 568 l 1
 613 562 588 537 584 513 c 0
 579 486 594 469 615 454 c 1
 588 302 l 1
 570 309 554 316 540 323 c 0
 475 357 431 403 450 508 c 0
 466 599 528 652 584 679 c 1
 596 750 l 1
 667 750 l 1
665 428 m 1
 689 418 713 407 734 394 c 0
 789 358 848 311 830 209 c 0
 815 122 744 44 663 12 c 1
 653 -47 l 1
 582 -47 l 1
 589 -3 l 1
 612 127 l 1
 637 130 679 150 688 203 c 0
 695 241 671 263 639 280 c 1
 665 428 l 1
EndSplineSet
Validated: 33
EndChar

StartChar: I
Encoding: 73 73 23
GlifName: I_
Width: 209
VWidth: 0
GlyphClass: 2
Flags: HMW
LayerCount: 2
Back
Fore
SplineSet
157 700 m 1
 298 700 l 1
 175 0 l 1
 34 0 l 1
 157 700 l 1
EndSplineSet
Validated: 1
EndChar

StartChar: J
Encoding: 74 74 28
GlifName: J_
Width: 495
VWidth: 0
GlyphClass: 2
Flags: HMW
LayerCount: 2
Back
Fore
SplineSet
266 -5 m 1
 291 137 l 1
 296 137 348 147 357 193 c 2
 446 700 l 1
 586 700 l 1
 497 193 l 2
 472 49 326 -5 266 -5 c 1
212 -5 m 1
 152 -5 35 54 60 193 c 2
 69 242 l 1
 210 242 l 1
 201 193 l 2
 194 147 232 137 237 137 c 1
 212 -5 l 1
EndSplineSet
Validated: 33
EndChar

StartChar: K
Encoding: 75 75 29
GlifName: K_
Width: 475
VWidth: 0
GlyphClass: 2
Flags: HMW
LayerCount: 2
Back
Fore
SplineSet
149 700 m 1
 290 700 l 1
 167 0 l 1
 26 0 l 1
 149 700 l 1
437 700 m 1
 576 700 l 1
 407 341 l 1
 457 0 l 1
 319 0 l 1
 267 341 l 1
 437 700 l 1
EndSplineSet
Validated: 1
EndChar

StartChar: L
Encoding: 76 76 30
GlifName: L_
Width: 428
VWidth: 0
GlyphClass: 2
Flags: HMW
LayerCount: 2
Back
Fore
SplineSet
427 139 m 1
 402 0 l 1
 26 0 l 1
 149 700 l 1
 290 700 l 1
 192 139 l 1
 427 139 l 1
EndSplineSet
Validated: 1
EndChar

StartChar: Lslash
Encoding: 258 321 31
GlifName: L_slash
Width: 530
VWidth: 0
GlyphClass: 2
Flags: HMW
LayerCount: 2
Back
Fore
SplineSet
429 540 m 1
 489 452 l 1
 330 343 l 1
 295 139 l 1
 530 139 l 1
 505 0 l 1
 129 0 l 1
 170 233 l 1
 135 209 l 1
 79 302 l 1
 196 382 l 1
 252 700 l 1
 393 700 l 1
 357 492 l 1
 429 540 l 1
EndSplineSet
Validated: 1
EndChar

StartChar: M
Encoding: 77 77 32
GlifName: M_
Width: 676
VWidth: 0
GlyphClass: 2
Flags: HMW
LayerCount: 2
Back
Fore
SplineSet
626 700 m 1
 767 700 l 1
 644 0 l 1
 503 0 l 1
 626 700 l 1
155 700 m 1
 265 700 l 1
 375 237 l 1
 523 476 l 1
 533 476 l 1
 476 151 l 1
 382 0 l 1
 285 0 l 1
 139 608 l 1
 155 700 l 1
32 0 m 1
 110 444 l 1
 119 444 l 1
 195 127 l 1
 173 0 l 1
 32 0 l 1
EndSplineSet
Validated: 1
EndChar

StartChar: N
Encoding: 78 78 33
GlifName: N_
Width: 509
VWidth: 0
GlyphClass: 2
Flags: HMW
LayerCount: 2
Back
Fore
SplineSet
155 700 m 1
 270 700 l 1
 507 168 l 1
 477 0 l 1
 410 0 l 1
 139 608 l 1
 155 700 l 1
600 700 m 1
 527 284 l 1
 519 284 l 1
 424 498 l 1
 459 700 l 1
 600 700 l 1
32 0 m 1
 119 492 l 1
 127 492 l 1
 222 278 l 1
 173 0 l 1
 32 0 l 1
EndSplineSet
Validated: 1
EndChar

StartChar: O
Encoding: 79 79 35
GlifName: O_
Width: 508
VWidth: 0
GlyphClass: 2
Flags: HMW
LayerCount: 2
Back
Fore
SplineSet
280 -5 m 1
 305 137 l 1
 310 137 362 149 371 195 c 2
 427 508 l 2
 428 513 426 563 380 564 c 1
 405 705 l 1
 536 705 580 583 570 524 c 2
 512 195 l 2
 487 51 340 -5 280 -5 c 1
225 -5 m 1
 165 -5 39 51 64 195 c 2
 122 524 l 2
 133 584 219 705 351 705 c 1
 326 564 l 1
 280 563 262 513 261 508 c 2
 205 195 l 2
 197 149 245 137 250 137 c 1
 225 -5 l 1
EndSplineSet
Validated: 33
EndChar

StartChar: OE
Encoding: 259 338 36
GlifName: O_E_
Width: 724
VWidth: 0
GlyphClass: 2
Flags: HMW
LayerCount: 2
Back
Fore
SplineSet
222 0 m 1
 162 0 36 56 61 200 c 2
 118 519 l 2
 129 579 214 700 346 700 c 1
 322 559 l 1
 276 558 257 508 256 503 c 2
 202 200 l 2
 194 154 242 142 247 142 c 1
 222 0 l 1
723 141 m 1
 698 0 l 1
 277 0 l 1
 302 142 l 1
 359 142 l 1
 433 559 l 1
 376 559 l 1
 400 700 l 1
 821 700 l 1
 797 560 l 1
 574 560 l 1
 549 418 l 1
 678 418 l 1
 653 277 l 1
 524 277 l 1
 500 141 l 1
 723 141 l 1
EndSplineSet
Validated: 33
EndChar

StartChar: Oslash
Encoding: 216 216 41
GlifName: O_slash
Width: 662
VWidth: 0
GlyphClass: 2
Flags: HMW
LayerCount: 2
Back
Fore
SplineSet
700 658 m 1
 763 570 l 1
 640 474 l 1
 590 195 l 2
 565 51 418 -5 358 -5 c 1
 383 137 l 1
 388 137 440 149 449 195 c 2
 476 347 l 1
 284 197 l 1
 283 195 l 1
 275 149 323 137 328 137 c 1
 303 -5 l 1
 260 -5 183 24 152 94 c 1
 86 43 l 1
 23 131 l 1
 148 228 l 1
 200 524 l 2
 211 584 297 705 429 705 c 1
 404 564 l 1
 358 563 340 513 339 508 c 2
 312 356 l 1
 504 505 l 1
 505 508 l 2
 506 513 504 563 458 564 c 1
 483 705 l 1
 565 705 613 658 635 607 c 1
 700 658 l 1
EndSplineSet
Validated: 33
EndChar

StartChar: P
Encoding: 80 80 43
GlifName: P_
Width: 474
VWidth: 0
GlyphClass: 2
Flags: HMW
LayerCount: 2
Back
Fore
SplineSet
149 700 m 1
 290 700 l 1
 167 0 l 1
 26 0 l 1
 149 700 l 1
302 457 m 1
 335 457 l 2
 342 457 386 458 395 508 c 0
 404 559 362 561 353 561 c 2
 320 561 l 1
 344 700 l 1
 525 700 558 626 538 512 c 0
 513 369 434 318 277 318 c 1
 302 457 l 1
EndSplineSet
Validated: 33
EndChar

StartChar: Percent_sign
Encoding: 37 37 44
GlifName: P_ercent_sign
Width: 629
VWidth: 0
GlyphClass: 2
Flags: HMW
LayerCount: 2
Back
Fore
SplineSet
408 117 m 0
 419 177 475 225 535 225 c 0
 595 225 635 177 624 117 c 0
 613 57 557 9 497 9 c 0
 437 9 397 57 408 117 c 0
127 575 m 0
 138 635 194 683 254 683 c 0
 314 683 354 635 343 575 c 0
 332 515 276 467 216 467 c 0
 156 467 116 515 127 575 c 0
156 -23 m 1
 461 716 l 1
 587 716 l 1
 283 -23 l 1
 156 -23 l 1
EndSplineSet
Validated: 33
EndChar

StartChar: Q
Encoding: 81 81 45
GlifName: Q_
Width: 500
VWidth: 0
GlyphClass: 2
Flags: HMW
LayerCount: 2
Back
Fore
SplineSet
413 47 m 1
 454 -32 l 1
 329 -107 l 1
 276 -5 l 1
 301 137 l 1
 306 137 358 149 367 195 c 2
 423 508 l 2
 424 513 422 563 376 564 c 1
 401 705 l 1
 532 705 576 583 566 524 c 2
 508 195 l 2
 496 127 458 79 413 47 c 1
221 -5 m 1
 161 -5 35 51 60 195 c 2
 118 524 l 2
 129 584 215 705 347 705 c 1
 322 564 l 1
 276 563 258 513 257 508 c 2
 201 195 l 2
 193 149 241 137 246 137 c 1
 221 -5 l 1
EndSplineSet
Validated: 33
EndChar

StartChar: R
Encoding: 82 82 46
GlifName: R_
Width: 495
VWidth: 0
GlyphClass: 2
Flags: HMW
LayerCount: 2
Back
Fore
SplineSet
155 700 m 1
 296 700 l 1
 173 0 l 1
 32 0 l 1
 155 700 l 1
299 411 m 1
 312 411 l 2
 372 411 405 447 412 488 c 0
 420 536 389 567 340 567 c 2
 327 567 l 1
 350 700 l 1
 500 700 561 616 540 496 c 0
 528 428 499 381 448 352 c 1
 479 325 495 266 490 217 c 2
 469 0 l 1
 343 0 l 1
 359 178 l 2
 366 257 348 285 277 286 c 1
 299 411 l 1
EndSplineSet
Validated: 33
EndChar

StartChar: S
Encoding: 83 83 47
GlifName: S_
Width: 497
VWidth: 0
GlyphClass: 2
Flags: HMW
LayerCount: 2
Back
Fore
SplineSet
215 -3 m 1
 106 -3 52 103 61 158 c 1
 196 203 l 1
 188 147 238 127 238 127 c 1
 215 -3 l 1
394 700 m 1
 500 700 544 589 544 553 c 1
 406 510 l 1
 409 557 371 568 371 568 c 1
 394 700 l 1
339 700 m 1
 316 568 l 1
 294 562 269 537 265 513 c 0
 253 446 355 434 415 394 c 0
 470 358 529 311 511 209 c 0
 491 96 378 -3 270 -3 c 1
 293 127 l 1
 318 130 360 150 369 203 c 0
 382 278 276 294 221 323 c 0
 156 357 112 403 131 508 c 0
 156 647 288 699 339 700 c 1
EndSplineSet
Validated: 33
EndChar

StartChar: T
Encoding: 84 84 49
GlifName: T_
Width: 485
VWidth: 0
GlyphClass: 2
Flags: HMW
LayerCount: 2
Back
Fore
SplineSet
582 700 m 1
 558 562 l 1
 412 562 l 1
 313 0 l 1
 172 0 l 1
 271 562 l 1
 125 562 l 1
 149 700 l 1
 582 700 l 1
EndSplineSet
Validated: 1
EndChar

StartChar: Thorn
Encoding: 222 222 50
GlifName: T_horn
Width: 474
VWidth: 0
GlyphClass: 2
Flags: HMW
LayerCount: 2
Back
Fore
SplineSet
149 700 m 1
 290 700 l 1
 167 0 l 1
 26 0 l 1
 149 700 l 1
282 347 m 1
 315 347 l 2
 322 347 366 348 375 398 c 0
 384 449 343 451 334 451 c 2
 301 451 l 1
 325 590 l 1
 506 590 539 516 519 402 c 0
 494 259 415 208 258 208 c 1
 282 347 l 1
EndSplineSet
Validated: 33
EndChar

StartChar: TradeMarkSign
Encoding: 261 8482 51
GlifName: T_radeM_arkS_ign
Width: 403
VWidth: 0
GlyphClass: 2
Flags: HMW
LayerCount: 2
Back
Fore
SplineSet
288 700 m 1
 280 653 l 1
 235 653 l 1
 205 484 l 1
 157 484 l 1
 187 653 l 1
 141 653 l 1
 149 700 l 1
 288 700 l 1
453 700 m 1
 500 700 l 1
 462 484 l 1
 415 484 l 1
 453 700 l 1
311 700 m 1
 348 700 l 1
 380 564 l 1
 425 636 l 1
 429 636 l 1
 410 529 l 1
 383 484 l 1
 350 484 l 1
 306 669 l 1
 311 700 l 1
273 484 m 1
 299 628 l 1
 302 628 l 1
 328 522 l 1
 321 484 l 1
 273 484 l 1
EndSplineSet
Validated: 1
EndChar

StartChar: U
Encoding: 85 85 52
GlifName: U_
Width: 512
VWidth: 0
GlyphClass: 2
Flags: HMW
LayerCount: 2
Back
Fore
SplineSet
282 -5 m 1
 307 137 l 1
 312 137 364 147 373 193 c 2
 462 700 l 1
 602 700 l 1
 513 193 l 2
 487 48 343 -5 282 -5 c 1
228 -5 m 1
 168 -5 41 49 66 193 c 2
 155 700 l 1
 296 700 l 1
 207 193 l 2
 200 147 248 137 253 137 c 1
 228 -5 l 1
EndSplineSet
Validated: 33
EndChar

StartChar: V
Encoding: 86 86 57
GlifName: V_
Width: 508
VWidth: 0
GlyphClass: 2
Flags: HMW
LayerCount: 2
Back
Fore
SplineSet
605 700 m 1
 542 569 477 430 410 290 c 1
 400 290 l 1
 374 514 l 1
 461 700 l 1
 605 700 l 1
149 700 m 1
 293 700 l 1
 357 158 l 1
 276 0 l 1
 229 0 l 1
 149 700 l 1
EndSplineSet
Validated: 1
EndChar

StartChar: W
Encoding: 87 87 58
GlifName: W_
Width: 725
VWidth: 0
GlyphClass: 2
Flags: HMW
LayerCount: 2
Back
Fore
SplineSet
822 700 m 1
 627 290 l 1
 617 290 l 1
 591 514 l 1
 678 700 l 1
 822 700 l 1
362 700 m 1
 506 700 l 1
 569 158 l 1
 489 0 l 1
 442 0 l 1
 362 700 l 1
149 700 m 1
 293 700 l 1
 356 158 l 1
 276 0 l 1
 229 0 l 1
 149 700 l 1
EndSplineSet
Validated: 1
EndChar

StartChar: X
Encoding: 88 88 59
GlifName: X_
Width: 464
VWidth: 0
GlyphClass: 2
Flags: HMW
LayerCount: 2
Back
Fore
SplineSet
549 700 m 1
 366 361 l 1
 438 0 l 1
 293 0 l 1
 261 167 l 1
 171 0 l 1
 26 0 l 1
 226 361 l 1
 161 700 l 1
 298 700 l 1
 329 548 l 1
 412 700 l 1
 549 700 l 1
EndSplineSet
Validated: 1
EndChar

StartChar: Y
Encoding: 89 89 60
GlifName: Y_
Width: 479
VWidth: 0
GlyphClass: 2
Flags: HMW
LayerCount: 2
Back
Fore
SplineSet
369 565 m 1
 431 700 l 1
 576 700 l 1
 402 331 l 1
 393 331 l 1
 369 565 l 1
149 700 m 1
 296 700 l 1
 348 253 l 1
 303 0 l 1
 157 0 l 1
 201 252 l 1
 149 700 l 1
EndSplineSet
Validated: 1
EndChar

StartChar: Z
Encoding: 90 90 63
GlifName: Z_
Width: 418
VWidth: 0
GlyphClass: 2
Flags: HMW
LayerCount: 2
Back
Fore
SplineSet
207 144 m 1
 417 144 l 1
 392 0 l 1
 26 0 l 1
 51 141 l 1
 335 560 l 1
 125 560 l 1
 149 700 l 1
 515 700 l 1
 491 563 l 1
 207 144 l 1
EndSplineSet
Validated: 1
EndChar

StartChar: a
Encoding: 97 97 65
GlifName: a
Width: 435
VWidth: 0
GlyphClass: 2
Flags: HMW
LayerCount: 2
Back
Fore
SplineSet
253 407 m 1
 250 407 l 2
 227 405 207 390 200 353 c 1
 200 349 l 1
 102 389 l 1
 102 391 l 1
 115 462 202 519 270 519 c 2
 273 519 l 1
 253 407 l 1
320 519 m 1
 323 519 l 2
 426 519 459 424 451 380 c 2
 409 143 l 2
 408 138 406 114 427 114 c 2
 430 114 l 1
 410 1 l 1
 407 1 l 2
 370 1 343 13 326 30 c 1
 300 12 268 1 232 1 c 2
 229 1 l 1
 249 113 l 1
 252 113 l 2
 282 114 293 146 294 149 c 2
 308 227 l 1
 266 205 186 190 171 183 c 0
 164 180 158 173 156 162 c 2
 153 149 l 2
 149 129 157 113 183 113 c 2
 200 113 l 1
 180 1 l 1
 83 1 37 64 47 121 c 2
 55 167 l 2
 61 200 74 233 120 257 c 0
 167 282 323 311 330 351 c 0
 331 355 331 359 332 363 c 0
 336 387 337 404 303 407 c 1
 300 408 l 1
 320 519 l 1
EndSplineSet
Validated: 33
EndChar

StartChar: acute
Encoding: 180 180 68
GlifName: acute
Width: 263
VWidth: 0
GlyphClass: 2
Flags: HMW
LayerCount: 2
Back
Fore
SplineSet
159 605 m 1
 68 605 l 1
 105 757 l 1
 232 757 l 1
 159 605 l 1
EndSplineSet
Validated: 1
EndChar

StartChar: ae
Encoding: 230 230 70
GlifName: ae
Width: 666
VWidth: 0
GlyphClass: 2
Flags: HMW
LayerCount: 2
Back
Fore
SplineSet
553 402 m 2
 549 402 l 1
 569 516 l 1
 575 516 l 2
 645 516 719 450 706 378 c 2
 676 208 l 1
 421 208 l 1
 409 143 l 2
 405 121 419 109 444 108 c 2
 503 108 l 2
 536 108 560 134 569 157 c 1
 661 120 l 1
 634 55 555 0 484 0 c 2
 425 0 l 2
 380 0 346 9 326 30 c 1
 300 12 268 1 232 1 c 2
 229 1 l 1
 249 113 l 1
 252 113 l 2
 282 114 293 146 294 149 c 2
 308 227 l 1
 266 205 186 190 171 183 c 0
 164 180 158 173 156 162 c 2
 153 149 l 2
 149 129 157 113 183 113 c 2
 200 113 l 1
 180 1 l 1
 83 1 35 53 45 110 c 2
 58 180 l 2
 64 213 74 233 120 257 c 0
 167 282 323 311 330 351 c 2
 332 363 l 2
 336 387 338 407 303 407 c 2
 250 407 l 2
 227 407 207 390 200 353 c 1
 200 349 l 1
 102 389 l 1
 102 391 l 1
 115 462 202 519 270 519 c 2
 325 519 l 2
 365 519 394 504 414 483 c 1
 441 502 476 516 515 516 c 2
 520 516 l 1
 500 400 l 1
 497 400 l 2
 471 400 455 385 450 373 c 2
 441 324 l 1
 582 324 l 1
 590 369 l 2
 595 396 573 402 553 402 c 2
EndSplineSet
Validated: 33
EndChar

StartChar: ampersand
Encoding: 38 38 72
GlifName: ampersand
Width: 687
VWidth: 0
GlyphClass: 2
Flags: HMW
LayerCount: 2
Back
Fore
SplineSet
440 700 m 1
 544 681 586 618 569 520 c 0
 556 445 485 383 427 361 c 1
 480 280 l 1
 495 299 508 320 516 345 c 1
 655 345 l 1
 632 274 599 227 552 180 c 1
 664 16 l 1
 467 16 l 1
 430 72 l 1
 402 50 357 26 320 16 c 1
 347 168 l 1
 355 173 356 174 364 180 c 1
 352 198 l 1
 403 486 l 1
 416 495 433 504 438 533 c 0
 442 557 441 570 420 582 c 1
 440 700 l 1
359 578 m 1
 359 578 332 569 326 536 c 0
 320 501 338 495 343 489 c 1
 304 269 l 1
 285 297 l 1
 256 275 227 251 219 204 c 0
 211 160 234 135 281 135 c 1
 258 3 l 1
 108 3 43 93 64 214 c 0
 80 306 146 370 222 404 c 1
 199 424 180 486 187 528 c 0
 203 621 273 681 381 702 c 1
 359 578 l 1
EndSplineSet
Validated: 33
EndChar

StartChar: asciicircum
Encoding: 94 94 74
GlifName: asciicircum
Width: 374
VWidth: 0
GlyphClass: 2
Flags: HMW
LayerCount: 2
Back
Fore
SplineSet
108 460 m 1
 309 756 l 1
 397 756 l 1
 494 460 l 1
 371 460 l 1
 325 603 l 1
 230 460 l 1
 108 460 l 1
EndSplineSet
Validated: 1
EndChar

StartChar: asciitilde
Encoding: 126 126 75
GlifName: asciitilde
Width: 568
VWidth: 0
GlyphClass: 2
Flags: HMW
LayerCount: 2
Back
Fore
SplineSet
568 281 m 1
 506 247 459 235 422 235 c 0
 330 235 293 308 211 308 c 0
 181 308 145 299 98 272 c 1
 121 405 l 1
 171 431 210 440 241 440 c 0
 328 440 364 367 452 367 c 0
 487 367 531 379 591 412 c 1
 568 281 l 1
EndSplineSet
Validated: 1
EndChar

StartChar: asterisk
Encoding: 42 42 76
GlifName: asterisk
Width: 394
VWidth: 0
GlyphClass: 2
Flags: HMW
LayerCount: 2
Back
Fore
SplineSet
315 478 m 1
 244 478 l 1
 259 564 l 1
 183 517 l 1
 152 574 l 1
 250 633 l 1
 172 691 l 1
 224 748 l 1
 284 704 l 1
 298 785 l 1
 369 785 l 1
 355 702 l 1
 434 748 l 1
 466 691 l 1
 367 632 l 1
 444 572 l 1
 393 515 l 1
 331 565 l 1
 315 478 l 1
EndSplineSet
Validated: 1
EndChar

StartChar: at
Encoding: 64 64 77
GlifName: at
Width: 803
VWidth: 0
GlyphClass: 2
Flags: HMW
LayerCount: 2
Back
Fore
SplineSet
685 103 m 1
 719 12 l 1
 650 -45 523 -87 408 -87 c 0
 180 -87 24 47 70 309 c 0
 109 533 317 715 574 715 c 0
 736 715 894 612 859 412 c 0
 822 201 674 116 552 116 c 0
 514 116 487 137 481 161 c 1
 463 139 427 116 364 116 c 0
 288 116 239 193 256 289 c 0
 283 444 419 519 501 519 c 0
 565 519 582 493 594 477 c 1
 607 504 l 1
 691 504 l 1
 606 308 l 2
 601 297 594 280 592 266 c 0
 589 249 591 240 605 240 c 0
 640 240 716 280 739 412 c 0
 760 530 655 602 557 602 c 0
 390 602 221 481 191 312 c 0
 157 122 264 22 418 22 c 0
 505 22 595 47 685 103 c 1
EndSplineSet
Validated: 33
EndChar

StartChar: b
Encoding: 98 98 79
GlifName: b
Width: 414
VWidth: 0
GlyphClass: 2
Flags: HMW
LayerCount: 2
Back
Fore
SplineSet
336 373 m 2
 336 375 334 397 307 398 c 2
 273 398 l 1
 294 516 l 1
 327 516 l 2
 429 516 461 422 454 377 c 2
 413 141 l 2
 405 97 339 0 236 0 c 2
 203 0 l 1
 224 118 l 1
 257 118 l 2
 285 118 295 142 295 143 c 2
 336 373 l 2
30 0 m 1
 153 699 l 1
 278 699 l 1
 155 0 l 1
 30 0 l 1
EndSplineSet
Validated: 33
EndChar

StartChar: backslash
Encoding: 92 92 80
GlifName: backslash
Width: 401
VWidth: 0
GlyphClass: 2
Flags: HMW
LayerCount: 2
Back
Fore
SplineSet
484 -23 m 1
 179 716 l 1
 53 716 l 1
 357 -23 l 1
 484 -23 l 1
EndSplineSet
Validated: 9
EndChar

StartChar: bar
Encoding: 124 124 81
GlifName: bar
Width: 205
VWidth: 0
GlyphClass: 2
Flags: HMW
LayerCount: 2
Back
Fore
SplineSet
183 754 m 1
 288 754 l 1
 131 -134 l 1
 26 -134 l 1
 183 754 l 1
EndSplineSet
Validated: 1
EndChar

StartChar: braceleft
Encoding: 123 123 82
GlifName: braceleft
Width: 407
VWidth: 0
GlyphClass: 2
Flags: HMW
LayerCount: 2
Back
Fore
SplineSet
437 735 m 1
 419 635 l 1
 351 635 345 591 322 469 c 2
 307 383 l 2
 304 366 281 354 256 348 c 1
 280 340 297 325 293 304 c 2
 276 207 l 2
 255 86 264 61 318 61 c 1
 300 -38 l 1
 294 -38 288 -38 282 -38 c 0
 193 -38 107 -31 146 192 c 2
 163 290 l 2
 169 322 144 329 111 348 c 1
 150 363 176 370 184 408 c 2
 201 504 l 2
 238 715 328 735 437 735 c 1
EndSplineSet
Validated: 33
EndChar

StartChar: braceright
Encoding: 125 125 83
GlifName: braceright
Width: 407
VWidth: 0
GlyphClass: 2
Flags: HMW
LayerCount: 2
Back
Fore
SplineSet
230 735 m 1
 339 735 421 715 384 504 c 2
 367 408 l 2
 361 370 385 363 418 348 c 1
 379 329 352 322 346 290 c 2
 329 192 l 2
 290 -31 200 -38 111 -38 c 0
 105 -38 99 -38 93 -38 c 1
 111 61 l 1
 165 61 184 87 205 208 c 2
 222 304 l 2
 226 325 247 340 273 348 c 1
 250 354 233 366 236 383 c 0
 236 384 l 1
 251 469 l 2
 272 591 280 635 212 635 c 1
 230 735 l 1
EndSplineSet
Validated: 33
EndChar

StartChar: bracketleft
Encoding: 91 91 84
GlifName: bracketleft
Width: 258
VWidth: 0
GlyphClass: 2
Flags: HMW
LayerCount: 2
Back
Fore
SplineSet
374 739 m 1
 355 629 l 1
 294 629 l 1
 193 74 l 1
 257 74 l 1
 238 -36 l 1
 44 -36 l 1
 180 739 l 1
 374 739 l 1
EndSplineSet
Validated: 1
EndChar

StartChar: bracketright
Encoding: 93 93 85
GlifName: bracketright
Width: 258
VWidth: 0
GlyphClass: 2
Flags: HMW
LayerCount: 2
Back
Fore
SplineSet
144 739 m 1
 338 739 l 1
 202 -36 l 1
 8 -36 l 1
 27 74 l 1
 91 74 l 1
 186 629 l 1
 125 629 l 1
 144 739 l 1
EndSplineSet
Validated: 1
EndChar

StartChar: breve
Encoding: 264 728 86
GlifName: breve
Width: 244
VWidth: 0
GlyphClass: 2
Flags: HMW
LayerCount: 2
Back
Fore
SplineSet
311 526 m 1
 302 473 251 430 198 430 c 0
 145 430 110 473 119 526 c 1
 183 526 l 1
 180 508 191 494 209 494 c 0
 227 494 244 508 247 526 c 1
 311 526 l 1
EndSplineSet
Validated: 33
EndChar

StartChar: brokenbar
Encoding: 166 166 87
GlifName: brokenbar
Width: 222
VWidth: 0
GlyphClass: 2
Flags: HMW
LayerCount: 2
Back
Fore
SplineSet
89 221 m 1
 211 221 l 1
 148 -134 l 1
 26 -134 l 1
 89 221 l 1
183 754 m 1
 305 754 l 1
 242 399 l 1
 120 399 l 1
 183 754 l 1
EndSplineSet
Validated: 1
EndChar

StartChar: bullet
Encoding: 265 8226 88
GlifName: bullet
Width: 352
VWidth: 0
GlyphClass: 2
Flags: HMW
LayerCount: 2
Back
Fore
SplineSet
87 344 m 0
 102 428 179 496 263 496 c 0
 347 496 402 428 387 344 c 0
 372 260 294 194 210 194 c 0
 126 194 72 260 87 344 c 0
EndSplineSet
Validated: 33
EndChar

StartChar: c
Encoding: 99 99 89
GlifName: c
Width: 418
VWidth: 0
GlyphClass: 2
Flags: HMW
LayerCount: 2
Back
Fore
SplineSet
96 377 m 2
 105 421 171 516 276 516 c 2
 282 516 l 1
 262 400 l 1
 256 400 l 2
 225 400 215 377 215 375 c 2
 174 141 l 2
 174 139 174 115 214 115 c 1
 219 114 l 1
 199 0 l 1
 194 0 l 2
 79 0 47 97 55 141 c 2
 96 377 l 2
243 -1 m 1
 263 116 l 1
 269 116 l 2
 271 116 293 119 300 132 c 0
 305 140 307 146 309 156 c 2
 314 186 l 1
 417 144 l 1
 417 140 l 1
 404 68 323 -1 250 -1 c 2
 243 -1 l 1
334 383 m 0
 331 397 309 399 309 399 c 2
 308 399 307 399 306 399 c 2
 303 399 l 1
 324 516 l 1
 330 516 l 2
 403 516 460 448 447 376 c 1
 447 372 l 1
 328 330 l 1
 333 360 l 2
 335 370 337 375 334 383 c 0
EndSplineSet
Validated: 33
EndChar

StartChar: caron
Encoding: 266 711 90
GlifName: caron
Width: 270
VWidth: 0
GlyphClass: 2
Flags: HMW
LayerCount: 2
Back
Fore
SplineSet
143 666 m 1
 224 666 l 1
 241 609 l 1
 279 666 l 1
 361 666 l 1
 258 514 l 1
 192 514 l 1
 143 666 l 1
EndSplineSet
Validated: 1
EndChar

StartChar: cedilla
Encoding: 184 184 92
GlifName: cedilla
Width: 219
VWidth: 0
GlyphClass: 2
Flags: HMW
LayerCount: 2
Back
Fore
SplineSet
124 123 m 1
 216 123 l 1
 203 47 147 -36 20 -36 c 1
 36 55 l 1
 72 55 114 68 124 123 c 1
EndSplineSet
Validated: 1
EndChar

StartChar: cent
Encoding: 162 162 93
GlifName: cent
Width: 494
VWidth: 0
GlyphClass: 2
Flags: HMW
LayerCount: 2
Back
Fore
SplineSet
307 136 m 1
 307 136 340 143 354 166 c 0
 361 178 364 189 366 203 c 2
 368 215 l 1
 500 182 l 1
 486 104 424 40 356 11 c 1
 346 -48 l 1
 275 -48 l 1
 282 -5 l 1
 298 86 l 1
 307 136 l 1
415 749 m 1
 486 749 l 1
 475 687 l 1
 533 656 572 587 559 516 c 1
 415 480 l 1
 417 495 l 2
 419 509 422 520 419 532 c 0
 413 555 382 564 382 564 c 1
 388 595 l 1
 407 705 l 1
 415 749 l 1
290 749 m 1
 361 749 l 1
 353 705 l 1
 334 595 l 1
 328 564 l 1
 282 563 265 523 264 518 c 2
 205 181 l 2
 204 176 207 136 253 136 c 1
 244 86 l 1
 228 -5 l 1
 221 -48 l 1
 150 -48 l 1
 159 7 l 1
 75 40 55 132 64 181 c 2
 123 518 l 2
 132 567 184 660 280 693 c 1
 290 749 l 1
EndSplineSet
Validated: 33
EndChar

StartChar: circumflex
Encoding: 267 710 94
GlifName: circumflex
Width: 270
VWidth: 0
GlyphClass: 2
Flags: HMW
LayerCount: 2
Back
Fore
SplineSet
117 514 m 1
 218 666 l 1
 284 666 l 1
 335 514 l 1
 253 514 l 1
 235 571 l 1
 198 514 l 1
 117 514 l 1
EndSplineSet
Validated: 1
EndChar

StartChar: colon
Encoding: 58 58 95
GlifName: colon
Width: 250
VWidth: 0
GlyphClass: 2
Flags: HMW
LayerCount: 2
Back
Fore
SplineSet
113 360 m 0
 120 402 160 436 202 436 c 0
 244 436 270 402 263 360 c 0
 256 318 217 285 175 285 c 0
 133 285 106 318 113 360 c 0
62 70 m 0
 69 112 109 146 151 146 c 0
 193 146 219 112 212 70 c 0
 205 28 166 -5 124 -5 c 0
 82 -5 55 28 62 70 c 0
EndSplineSet
Validated: 33
EndChar

StartChar: comma
Encoding: 44 44 96
GlifName: comma
Width: 265
VWidth: 0
GlyphClass: 2
Flags: HMW
LayerCount: 2
Back
Fore
SplineSet
174 -23 m 1
 47 -23 l 1
 111 129 l 1
 238 129 l 1
 174 -23 l 1
EndSplineSet
Validated: 1
EndChar

StartChar: copyright
Encoding: 169 169 97
GlifName: copyright
Width: 859
VWidth: 0
GlyphClass: 2
Flags: HMW
LayerCount: 2
Back
Fore
SplineSet
455 44 m 1
 602 51 749 179 779 332 c 0
 779 334 780 337 780 339 c 0
 811 516 688 635 559 636 c 1
 575 726 l 1
 723 725 913 589 869 339 c 0
 868 335 868 331 867 327 c 0
 822 104 611 -43 438 -49 c 1
 455 44 l 1
512 566 m 1
 496 476 l 1
 467 476 457 450 456 447 c 2
 418 231 l 2
 417 228 419 203 448 203 c 1
 432 112 l 1
 341 112 321 193 328 231 c 2
 366 447 l 2
 373 485 421 566 512 566 c 1
482 201 m 1
 482 201 504 207 513 222 c 0
 517 229 518 236 520 245 c 2
 524 264 l 1
 606 232 l 1
 595 171 526 112 467 112 c 1
 482 201 l 1
531 476 m 1
 547 566 l 1
 606 566 655 507 644 446 c 1
 550 413 l 1
 553 432 l 2
 555 441 556 448 554 456 c 0
 550 470 531 476 531 476 c 1
420 44 m 1
 403 -49 l 1
 232 -43 75 104 108 327 c 0
 109 331 109 335 110 339 c 0
 154 589 392 725 540 726 c 1
 524 636 l 1
 395 635 230 516 199 339 c 0
 199 337 198 334 198 332 c 0
 174 179 275 51 420 44 c 1
EndSplineSet
Validated: 33
EndChar

StartChar: currency
Encoding: 164 164 98
GlifName: currency
Width: 656
VWidth: 0
GlyphClass: 2
Flags: HMW
LayerCount: 2
Back
Fore
SplineSet
145 540 m 1
 232 622 l 1
 296 555 l 1
 325 578 364 595 409 595 c 2
 415 595 l 1
 394 477 l 1
 388 477 l 2
 355 477 346 453 346 452 c 2
 315 276 l 2
 314 273 318 251 348 251 c 2
 354 251 l 1
 333 133 l 1
 327 133 l 2
 281 133 249 151 228 175 c 1
 141 109 l 1
 85 190 l 1
 194 275 l 1
 226 455 l 1
 226 455 226 455 226 456 c 2
 145 540 l 1
435 477 m 1
 456 595 l 1
 462 595 l 2
 505 595 536 578 557 555 c 1
 644 622 l 1
 701 540 l 1
 590 456 l 2
 590 455 l 1
 558 275 l 1
 639 190 l 1
 553 109 l 1
 491 174 l 1
 462 150 424 133 380 133 c 2
 374 133 l 1
 395 247 l 1
 401 247 l 2
 432 248 441 272 441 274 c 2
 473 451 l 2
 474 454 471 477 441 477 c 2
 435 477 l 1
EndSplineSet
Validated: 33
EndChar

StartChar: d
Encoding: 100 100 99
GlifName: d
Width: 414
VWidth: 0
GlyphClass: 2
Flags: HMW
LayerCount: 2
Back
Fore
SplineSet
384 0 m 1
 258 0 l 1
 381 698 l 1
 507 698 l 1
 384 0 l 1
271 516 m 2
 301 516 l 1
 280 398 l 1
 250 398 l 2
 223 397 214 375 214 373 c 2
 173 143 l 2
 173 141 175 118 203 118 c 2
 231 118 l 1
 210 0 l 1
 182 0 l 2
 78 0 47 97 55 141 c 2
 96 377 l 2
 105 422 170 516 271 516 c 2
EndSplineSet
Validated: 33
EndChar

StartChar: dagger
Encoding: 268 8224 100
GlifName: dagger
Width: 453
VWidth: 0
GlyphClass: 2
Flags: HMW
LayerCount: 2
Back
Fore
SplineSet
529 577 m 1
 506 450 l 1
 376 450 l 1
 287 -56 l 1
 146 -56 l 1
 235 450 l 1
 105 450 l 1
 128 577 l 1
 258 577 l 1
 291 764 l 1
 432 764 l 1
 399 577 l 1
 529 577 l 1
EndSplineSet
Validated: 1
EndChar

StartChar: daggerdbl
Encoding: 269 8225 101
GlifName: daggerdbl
Width: 453
VWidth: 0
GlyphClass: 2
Flags: HMW
LayerCount: 2
Back
Fore
SplineSet
291 764 m 1
 432 764 l 1
 399 577 l 1
 529 577 l 1
 506 450 l 1
 376 450 l 1
 342 258 l 1
 472 258 l 1
 450 131 l 1
 320 131 l 1
 287 -56 l 1
 146 -56 l 1
 179 131 l 1
 49 131 l 1
 71 258 l 1
 201 258 l 1
 235 450 l 1
 105 450 l 1
 128 577 l 1
 258 577 l 1
 291 764 l 1
EndSplineSet
Validated: 1
EndChar

StartChar: degree
Encoding: 176 176 102
GlifName: degree
Width: 282
VWidth: 0
GlyphClass: 2
Flags: HMW
LayerCount: 2
Back
Fore
SplineSet
128 583 m 0
 139 647 200 698 263 698 c 0
 327 698 370 647 359 583 c 0
 348 520 287 468 223 468 c 0
 160 468 117 520 128 583 c 0
205 583 m 0
 201 562 215 545 236 545 c 0
 258 545 278 562 282 583 c 0
 286 605 272 622 250 622 c 0
 229 622 209 605 205 583 c 0
EndSplineSet
Validated: 33
EndChar

StartChar: dieresis
Encoding: 168 168 103
GlifName: dieresis
Width: 320
VWidth: 0
GlyphClass: 2
Flags: HMW
LayerCount: 2
Back
Fore
SplineSet
120 678 m 0
 127 720 166 754 208 754 c 0
 250 754 277 720 270 678 c 0
 263 636 223 603 181 603 c 0
 139 603 113 636 120 678 c 0
290 678 m 0
 297 720 336 754 378 754 c 0
 420 754 447 720 440 678 c 0
 433 636 393 603 351 603 c 0
 309 603 283 636 290 678 c 0
EndSplineSet
Validated: 33
EndChar

StartChar: dollar
Encoding: 36 36 105
GlifName: dollar
Width: 501
VWidth: 0
GlyphClass: 2
Flags: HMW
LayerCount: 2
Back
Fore
SplineSet
205 -47 m 1
 134 -47 l 1
 144 13 l 1
 81 45 52 116 58 158 c 1
 193 203 l 1
 185 147 235 127 235 127 c 1
 205 -47 l 1
459 682 m 1
 516 649 541 580 541 553 c 1
 403 510 l 1
 406 557 368 568 368 568 c 1
 400 750 l 1
 471 750 l 1
 459 682 l 1
345 750 m 1
 313 568 l 1
 291 562 266 537 262 513 c 0
 257 486 272 469 293 454 c 1
 266 302 l 1
 248 309 232 316 218 323 c 0
 153 357 109 403 128 508 c 0
 144 599 206 652 262 679 c 1
 274 750 l 1
 345 750 l 1
343 428 m 1
 367 418 391 407 412 394 c 0
 467 358 526 311 508 209 c 0
 493 122 422 44 341 12 c 1
 331 -47 l 1
 260 -47 l 1
 267 -3 l 1
 290 127 l 1
 315 130 357 150 366 203 c 0
 373 241 349 263 317 280 c 1
 343 428 l 1
EndSplineSet
Validated: 33
EndChar

StartChar: dotaccent
Encoding: 270 729 106
GlifName: dotaccent
Width: 202
VWidth: 0
GlyphClass: 2
Flags: HMW
LayerCount: 2
Back
Fore
SplineSet
146 678 m 0
 153 720 192 754 234 754 c 0
 276 754 303 720 296 678 c 0
 289 636 249 603 207 603 c 0
 165 603 139 636 146 678 c 0
EndSplineSet
Validated: 33
EndChar

StartChar: dotlessi
Encoding: 271 305 107
GlifName: dotlessi
Width: 174
VWidth: 0
GlyphClass: 2
Flags: HMW
LayerCount: 2
Back
Fore
SplineSet
148 0 m 1
 26 0 l 1
 117 516 l 1
 239 516 l 1
 148 0 l 1
EndSplineSet
Validated: 1
EndChar

StartChar: e
Encoding: 101 101 108
GlifName: e
Width: 424
VWidth: 0
GlyphClass: 2
Flags: HMW
LayerCount: 2
Back
Fore
SplineSet
236 0 m 1
 256 111 l 1
 262 111 l 2
 293 113 317 132 325 153 c 2
 327 157 l 1
 419 120 l 1
 418 118 l 1
 392 54 312 0 242 0 c 2
 236 0 l 1
311 402 m 2
 307 402 l 1
 327 516 l 1
 333 516 l 2
 403 516 477 450 464 378 c 2
 434 208 l 1
 185 208 l 1
 173 141 l 2
 172 138 174 109 202 108 c 2
 207 108 l 1
 188 0 l 1
 183 0 l 2
 79 0 43 96 51 141 c 2
 92 377 l 2
 101 422 171 516 273 516 c 2
 278 516 l 1
 258 400 l 1
 255 400 l 2
 226 400 215 380 213 369 c 2
 205 324 l 1
 340 324 l 1
 348 369 l 2
 353 396 331 402 311 402 c 2
EndSplineSet
Validated: 33
EndChar

StartChar: eight
Encoding: 56 56 113
GlifName: eight
Width: 486
VWidth: 0
GlyphClass: 2
Flags: HMW
LayerCount: 2
Back
Fore
SplineSet
234 125 m 1
 211 0 l 1
 210 0 l 2
 170 0 35 53 61 199 c 0
 73 269 122 330 153 349 c 1
 140 352 106 415 121 499 c 0
 142 619 267 698 337 698 c 1
 315 571 l 1
 296 568 255 551 245 497 c 0
 236 446 252 424 286 413 c 1
 263 283 l 1
 229 274 198 251 189 201 c 0
 183 165 203 134 234 125 c 1
296 125 m 1
 331 134 361 165 367 201 c 0
 376 251 353 274 323 283 c 1
 346 413 l 1
 384 424 408 446 417 497 c 0
 427 551 390 568 373 571 c 1
 395 698 l 1
 465 698 561 619 540 499 c 0
 525 415 472 352 457 349 c 1
 482 330 507 269 495 199 c 0
 469 53 316 0 276 0 c 2
 275 0 l 1
 296 125 l 1
EndSplineSet
Validated: 33
EndChar

StartChar: emdash
Encoding: 272 8212 114
GlifName: emdash
Width: 906
VWidth: 0
GlyphClass: 2
Flags: HMW
LayerCount: 2
Back
Fore
SplineSet
943 357 m 1
 921 230 l 1
 67 230 l 1
 89 357 l 1
 943 357 l 1
EndSplineSet
Validated: 1
EndChar

StartChar: endash
Encoding: 273 8211 115
GlifName: endash
Width: 532
VWidth: 0
GlyphClass: 2
Flags: HMW
LayerCount: 2
Back
Fore
SplineSet
569 357 m 1
 547 230 l 1
 67 230 l 1
 89 357 l 1
 569 357 l 1
EndSplineSet
Validated: 1
EndChar

StartChar: equal
Encoding: 61 61 116
GlifName: equal
Width: 418
VWidth: 0
GlyphClass: 2
Flags: HMW
LayerCount: 2
Back
Fore
SplineSet
448 452 m 1
 425 325 l 1
 107 325 l 1
 130 452 l 1
 448 452 l 1
413 258 m 1
 391 131 l 1
 73 131 l 1
 95 258 l 1
 413 258 l 1
EndSplineSet
Validated: 1
EndChar

StartChar: eth
Encoding: 240 240 117
GlifName: eth
Width: 420
VWidth: 0
GlyphClass: 2
Flags: HMW
LayerCount: 2
Back
Fore
SplineSet
94 376 m 2
 102 421 170 516 277 516 c 2
 283 516 l 1
 262 398 l 1
 256 398 l 2
 223 398 214 373 212 363 c 2
 175 154 l 2
 172 135 177 117 207 117 c 2
 213 117 l 1
 192 -1 l 1
 186 -1 l 2
 78 -1 45 97 53 141 c 2
 94 376 l 2
365 558 m 1
 305 541 l 1
 297 598 l 1
 350 614 l 1
 340 627 326 637 306 647 c 1
 318 714 l 1
 374 703 417 679 443 641 c 1
 496 657 l 1
 504 599 l 1
 468 588 l 1
 480 548 480 500 470 442 c 2
 458 376 l 1
 456 364 l 1
 417 141 l 2
 409 96 343 -1 239 -1 c 2
 233 -1 l 1
 254 117 l 1
 260 117 l 2
 291 118 300 141 302 152 c 2
 339 363 l 2
 342 380 339 398 309 398 c 2
 303 398 l 1
 324 516 l 1
 330 516 l 2
 342 516 353 515 363 512 c 1
 364 530 366 545 365 558 c 1
EndSplineSet
Validated: 33
EndChar

StartChar: exclam
Encoding: 33 33 118
GlifName: exclam
Width: 329
VWidth: 0
GlyphClass: 2
Flags: HMW
LayerCount: 2
Back
Fore
SplineSet
129 166 m 1
 223 700 l 1
 352 700 l 1
 258 166 l 1
 129 166 l 1
97 53 m 0
 104 95 144 129 186 129 c 0
 228 129 254 95 247 53 c 0
 240 11 201 -22 159 -22 c 0
 117 -22 90 11 97 53 c 0
EndSplineSet
Validated: 33
EndChar

StartChar: exclamdown
Encoding: 161 161 119
GlifName: exclamdown
Width: 210
VWidth: 0
GlyphClass: 2
Flags: HMW
LayerCount: 2
Back
Fore
SplineSet
132 534 m 1
 261 534 l 1
 167 0 l 1
 38 0 l 1
 132 534 l 1
140 647 m 0
 147 689 186 722 228 722 c 0
 270 722 297 689 290 647 c 0
 283 605 244 571 202 571 c 0
 160 571 133 605 140 647 c 0
EndSplineSet
Validated: 33
EndChar

StartChar: f
Encoding: 102 102 120
GlifName: f
Width: 304
VWidth: 0
GlyphClass: 2
Flags: HMW
LayerCount: 2
Back
Fore
SplineSet
186 552 m 2
 194 597 263 695 366 696 c 2
 402 696 l 1
 379 579 l 1
 346 579 l 2
 318 578 309 555 308 552 c 2
 302 515 l 1
 368 516 l 1
 348 400 l 1
 282 400 l 1
 211 0 l 1
 89 0 l 1
 160 400 l 1
 97 400 l 1
 117 516 l 1
 180 516 l 1
 186 552 l 2
EndSplineSet
Validated: 1
EndChar

StartChar: fi
Encoding: 274 64257 121
GlifName: fi
Width: 494
VWidth: 0
GlyphClass: 2
Flags: HMW
LayerCount: 2
Back
Fore
SplineSet
186 552 m 2
 194 597 263 695 366 696 c 2
 427 696 l 1
 397 579 l 1
 346 579 l 2
 318 578 309 555 308 552 c 2
 302 516 l 1
 548 516 l 1
 457 0 l 1
 335 0 l 1
 406 400 l 1
 282 400 l 1
 211 0 l 1
 89 0 l 1
 160 400 l 1
 97 400 l 1
 117 516 l 1
 180 516 l 1
 186 552 l 2
579 630 m 0
 572 591 533 558 493 558 c 0
 453 558 426 591 433 630 c 0
 440 670 479 703 519 703 c 0
 559 703 586 670 579 630 c 0
EndSplineSet
Validated: 33
EndChar

StartChar: five
Encoding: 53 53 122
GlifName: five
Width: 492
VWidth: 0
GlyphClass: 2
Flags: HMW
LayerCount: 2
Back
Fore
SplineSet
162 175 m 1
 173 144 200 131 226 126 c 1
 204 0 l 1
 120 0 68 46 47 107 c 1
 162 175 l 1
337 447 m 1
 479 444 524 333 505 223 c 0
 480 82 363 2 258 0 c 1
 280 126 l 1
 331 135 368 174 377 224 c 0
 387 280 352 319 315 324 c 1
 337 447 l 1
510 574 m 1
 272 573 l 1
 237 442 l 1
 251 445 266 447 283 447 c 1
 261 324 l 1
 226 321 201 301 186 286 c 1
 88 354 l 1
 178 700 l 1
 532 700 l 1
 510 574 l 1
EndSplineSet
Validated: 33
EndChar

StartChar: fl
Encoding: 275 64258 123
GlifName: fl
Width: 483
VWidth: 0
GlyphClass: 2
Flags: HMW
LayerCount: 2
Back
Fore
SplineSet
457 0 m 1
 331 0 l 1
 433 579 l 1
 346 579 l 2
 318 578 309 555 308 552 c 2
 302 515 l 1
 368 516 l 1
 348 400 l 1
 282 400 l 1
 211 0 l 1
 89 0 l 1
 160 400 l 1
 97 400 l 1
 117 516 l 1
 180 516 l 1
 186 552 l 2
 194 597 263 695 366 696 c 2
 580 696 l 1
 457 0 l 1
EndSplineSet
Validated: 1
EndChar

StartChar: florin
Encoding: 276 402 124
GlifName: florin
Width: 382
VWidth: 0
GlyphClass: 2
Flags: HMW
LayerCount: 2
Back
Fore
SplineSet
238 552 m 2
 246 597 315 695 418 696 c 2
 458 696 l 1
 431 579 l 1
 398 579 l 2
 370 578 361 555 360 552 c 2
 354 515 l 1
 420 516 l 1
 400 400 l 1
 334 400 l 1
 264 7 l 1
 263 0 l 1
 258 -30 l 2
 247 -92 191 -168 79 -168 c 2
 17 -168 l 1
 42 -63 l 1
 97 -63 l 2
 125 -62 134 -39 135 -36 c 2
 141 0 l 1
 142 7 l 1
 212 400 l 1
 149 400 l 1
 169 516 l 1
 232 516 l 1
 238 552 l 2
EndSplineSet
Validated: 1
EndChar

StartChar: four
Encoding: 52 52 125
GlifName: four
Width: 483
VWidth: 0
GlyphClass: 2
Flags: HMW
LayerCount: 2
Back
Fore
SplineSet
505 272 m 1
 483 145 l 1
 429 145 l 1
 403 0 l 1
 273 0 l 1
 397 701 l 1
 527 701 l 1
 451 272 l 1
 505 272 l 1
264 272 m 1
 242 145 l 1
 52 145 l 1
 74 272 l 1
 321 598 l 1
 278 351 l 1
 218 272 l 1
 264 272 l 1
EndSplineSet
Validated: 1
EndChar

StartChar: fraction
Encoding: 277 8260 126
GlifName: fraction
Width: 560
VWidth: 0
GlyphClass: 2
Flags: HMW
LayerCount: 2
Back
Fore
SplineSet
26 -2 m 1
 582 702 l 1
 658 702 l 1
 109 -2 l 1
 26 -2 l 1
EndSplineSet
Validated: 1
EndChar

StartChar: g
Encoding: 103 103 127
GlifName: g
Width: 415
VWidth: 0
GlyphClass: 2
Flags: HMW
LayerCount: 2
Back
Fore
SplineSet
280 516 m 2
 283 516 l 1
 263 403 l 1
 260 403 l 2
 228 403 217 378 216 375 c 2
 175 140 l 2
 174 137 178 112 209 112 c 2
 212 112 l 1
 192 -1 l 1
 189 -1 l 2
 84 -1 52 96 60 139 c 2
 102 378 l 2
 111 422 176 516 280 516 c 2
204 -181 m 2
 13 -181 l 1
 37 -69 l 1
 222 -69 l 2
 253 -68 264 -43 265 -40 c 2
 273 3 l 1
 260 0 248 -1 234 -1 c 2
 231 -1 l 1
 250 109 l 1
 253 109 l 2
 284 110 296 136 297 139 c 2
 338 374 l 2
 339 377 336 403 305 403 c 2
 302 403 l 1
 322 516 l 1
 325 516 l 2
 338 516 352 514 362 511 c 1
 363 516 l 1
 480 516 l 1
 382 -40 l 2
 374 -83 307 -180 204 -181 c 2
EndSplineSet
Validated: 33
EndChar

StartChar: germandbls
Encoding: 223 223 128
GlifName: germandbls
Width: 522
VWidth: 0
GlyphClass: 2
Flags: HMW
LayerCount: 2
Back
Fore
SplineSet
155 0 m 1
 26 0 l 1
 107 457 l 2
 121 531 140 705 350 705 c 0
 520 705 507 575 497 518 c 2
 477 405 l 1
 414 406 l 1
 379 400 370 368 369 361 c 0
 367 349 368 326 444 299 c 0
 491 282 539 243 524 160 c 0
 506 57 420 0 327 0 c 2
 199 0 l 1
 218 109 l 1
 346 109 l 2
 361 110 400 120 406 153 c 0
 414 198 366 200 316 228 c 0
 272 252 241 287 256 371 c 0
 269 446 330 489 383 507 c 1
 386 519 l 1
 395 572 362 586 328 586 c 0
 277 586 253 554 243 498 c 2
 155 0 l 1
EndSplineSet
Validated: 33
EndChar

StartChar: grave
Encoding: 96 96 129
GlifName: grave
Width: 263
VWidth: 0
GlyphClass: 2
Flags: HMW
LayerCount: 2
Back
Fore
SplineSet
229 605 m 1
 182 757 l 1
 309 757 l 1
 320 605 l 1
 229 605 l 1
EndSplineSet
Validated: 1
EndChar

StartChar: greater
Encoding: 62 62 130
GlifName: greater
Width: 414
VWidth: 0
GlyphClass: 2
Flags: HMW
LayerCount: 2
Back
Fore
SplineSet
118 500 m 1
 441 322 l 1
 429 258 l 1
 44 79 l 1
 66 206 l 1
 257 292 l 1
 95 370 l 1
 118 500 l 1
EndSplineSet
Validated: 1
EndChar

StartChar: guillemotleft
Encoding: 171 171 131
GlifName: guillemotleft
Width: 475
VWidth: 0
GlyphClass: 2
Flags: HMW
LayerCount: 2
Back
Fore
SplineSet
533 477 m 1
 511 352 l 1
 411 292 l 1
 488 224 l 1
 467 102 l 1
 284 259 l 1
 295 321 l 1
 533 477 l 1
322 477 m 1
 300 352 l 1
 200 292 l 1
 277 224 l 1
 256 102 l 1
 73 259 l 1
 84 321 l 1
 322 477 l 1
EndSplineSet
Validated: 1
EndChar

StartChar: guillemotright
Encoding: 187 187 132
GlifName: guillemotright
Width: 414
VWidth: 0
GlyphClass: 2
Flags: HMW
LayerCount: 2
Back
Fore
SplineSet
321 477 m 1
 505 321 l 1
 494 259 l 1
 255 102 l 1
 276 224 l 1
 377 292 l 1
 299 352 l 1
 321 477 l 1
110 477 m 1
 294 321 l 1
 283 259 l 1
 44 102 l 1
 65 224 l 1
 166 292 l 1
 88 352 l 1
 110 477 l 1
EndSplineSet
Validated: 1
EndChar

StartChar: guilsinglleft
Encoding: 278 8249 133
GlifName: guilsinglleft
Width: 338
VWidth: 0
GlyphClass: 2
Flags: HMW
LayerCount: 2
Back
Fore
SplineSet
245 500 m 1
 400 500 l 1
 232 292 l 1
 326 79 l 1
 171 79 l 1
 77 292 l 1
 245 500 l 1
EndSplineSet
Validated: 1
EndChar

StartChar: guilsinglright
Encoding: 279 8250 134
GlifName: guilsinglright
Width: 338
VWidth: 0
GlyphClass: 2
Flags: HMW
LayerCount: 2
Back
Fore
SplineSet
269 500 m 1
 363 292 l 1
 195 79 l 1
 40 79 l 1
 208 292 l 1
 114 500 l 1
 269 500 l 1
EndSplineSet
Validated: 1
EndChar

StartChar: h
Encoding: 104 104 135
GlifName: h
Width: 421
VWidth: 0
GlyphClass: 2
Flags: HMW
LayerCount: 2
Back
Fore
SplineSet
328 511 m 1
 331 511 l 1
 427 507 473 444 461 374 c 2
 395 1 l 1
 281 1 l 1
 345 365 l 2
 346 369 344 396 311 399 c 2
 308 399 l 1
 328 511 l 1
145 1 m 1
 30 1 l 1
 153 698 l 1
 267 698 l 1
 233 505 l 1
 236 506 l 2
 249 509 266 511 280 511 c 2
 283 511 l 1
 263 399 l 1
 260 399 l 2
 227 396 210 370 209 365 c 2
 145 1 l 1
EndSplineSet
Validated: 33
EndChar

StartChar: hungarumlaut
Encoding: 280 733 136
GlifName: hungarumlaut
Width: 336
VWidth: 0
GlyphClass: 2
Flags: HMW
LayerCount: 2
Back
Fore
SplineSet
252 605 m 1
 169 605 l 1
 198 757 l 1
 310 757 l 1
 252 605 l 1
109 605 m 1
 26 605 l 1
 55 757 l 1
 167 757 l 1
 109 605 l 1
EndSplineSet
Validated: 1
EndChar

StartChar: hyphen
Encoding: 45 45 137
GlifName: hyphen
Width: 416
VWidth: 0
GlyphClass: 2
Flags: HMW
LayerCount: 2
Back
Fore
SplineSet
429 357 m 1
 407 230 l 1
 91 230 l 1
 113 357 l 1
 429 357 l 1
EndSplineSet
Validated: 1
EndChar

StartChar: i
Encoding: 105 105 138
GlifName: i
Width: 199
VWidth: 0
GlyphClass: 2
Flags: HMW
LayerCount: 2
Back
Fore
SplineSet
161 0 m 1
 39 0 l 1
 130 516 l 1
 252 516 l 1
 161 0 l 1
283 630 m 0
 276 591 237 558 197 558 c 0
 157 558 130 591 137 630 c 0
 144 670 183 703 223 703 c 0
 263 703 290 670 283 630 c 0
EndSplineSet
Validated: 33
EndChar

StartChar: iacute
Encoding: 237 237 139
GlifName: iacute
Width: 199
VWidth: 0
GlyphClass: 2
Flags: HMW
LayerCount: 2
Back
Fore
SplineSet
161 0 m 1
 39 0 l 1
 130 516 l 1
 252 516 l 1
 161 0 l 1
248 577 m 1
 157 577 l 1
 194 729 l 1
 321 729 l 1
 248 577 l 1
EndSplineSet
Validated: 1
EndChar

StartChar: icircumflex
Encoding: 238 238 140
GlifName: icircumflex
Width: 174
VWidth: 0
GlyphClass: 2
Flags: HMW
LayerCount: 2
Back
Fore
SplineSet
80 577 m 1
 182 729 l 1
 248 729 l 1
 298 577 l 1
 216 577 l 1
 198 634 l 1
 161 577 l 1
 80 577 l 1
148 0 m 1
 26 0 l 1
 117 516 l 1
 239 516 l 1
 148 0 l 1
EndSplineSet
Validated: 1
EndChar

StartChar: idieresis
Encoding: 239 239 141
GlifName: idieresis
Width: 199
VWidth: 0
GlyphClass: 2
Flags: HMW
LayerCount: 2
Back
Fore
SplineSet
54 651 m 0
 61 693 100 727 142 727 c 0
 184 727 211 693 204 651 c 0
 197 609 158 576 116 576 c 0
 74 576 47 609 54 651 c 0
224 651 m 0
 231 693 270 727 312 727 c 0
 354 727 381 693 374 651 c 0
 367 609 328 576 286 576 c 0
 244 576 217 609 224 651 c 0
161 0 m 1
 39 0 l 1
 130 516 l 1
 252 516 l 1
 161 0 l 1
EndSplineSet
Validated: 33
EndChar

StartChar: igrave
Encoding: 236 236 142
GlifName: igrave
Width: 199
VWidth: 0
GlyphClass: 2
Flags: HMW
LayerCount: 2
Back
Fore
SplineSet
153 577 m 1
 106 729 l 1
 234 729 l 1
 243 577 l 1
 153 577 l 1
161 0 m 1
 39 0 l 1
 130 516 l 1
 252 516 l 1
 161 0 l 1
EndSplineSet
Validated: 1
EndChar

StartChar: j
Encoding: 106 106 143
GlifName: j
Width: 194
VWidth: 0
GlyphClass: 2
Flags: HMW
LayerCount: 2
Back
Fore
SplineSet
281 628 m 0
 274 588 235 556 195 556 c 0
 155 556 128 588 135 628 c 0
 142 668 181 702 221 702 c 0
 261 702 288 668 281 628 c 0
152 -38 m 2
 144 -85 77 -181 -25 -181 c 2
 -82 -181 l 1
 -34 -64 l 1
 -7 -64 l 2
 21 -63 30 -40 30 -38 c 2
 128 516 l 1
 250 516 l 1
 152 -38 l 2
EndSplineSet
Validated: 33
EndChar

StartChar: k
Encoding: 107 107 144
GlifName: k
Width: 452
VWidth: 0
GlyphClass: 2
Flags: HMW
LayerCount: 2
Back
Fore
SplineSet
296 0 m 1
 228 257 l 1
 386 514 l 1
 519 514 l 1
 358 257 l 1
 428 0 l 1
 296 0 l 1
155 0 m 1
 30 0 l 1
 153 698 l 1
 278 698 l 1
 155 0 l 1
EndSplineSet
Validated: 1
EndChar

StartChar: l
Encoding: 108 108 145
GlifName: l
Width: 184
VWidth: 0
GlyphClass: 2
Flags: HMW
LayerCount: 2
Back
Fore
SplineSet
161 0 m 1
 30 0 l 1
 153 698 l 1
 284 698 l 1
 161 0 l 1
EndSplineSet
Validated: 1
EndChar

StartChar: less
Encoding: 60 60 146
GlifName: less
Width: 414
VWidth: 0
GlyphClass: 2
Flags: HMW
LayerCount: 2
Back
Fore
SplineSet
472 500 m 1
 449 370 l 1
 259 292 l 1
 420 206 l 1
 398 79 l 1
 75 258 l 1
 87 322 l 1
 472 500 l 1
EndSplineSet
Validated: 1
EndChar

StartChar: logicalnot
Encoding: 172 172 147
GlifName: logicalnot
Width: 502
VWidth: 0
GlyphClass: 2
Flags: HMW
LayerCount: 2
Back
Fore
SplineSet
513 208 m 1
 395 208 l 1
 416 327 l 1
 84 327 l 1
 104 442 l 1
 554 442 l 1
 513 208 l 1
EndSplineSet
Validated: 1
EndChar

StartChar: lslash
Encoding: 281 322 148
GlifName: lslash
Width: 424
VWidth: 0
GlyphClass: 2
Flags: HMW
LayerCount: 2
Back
Fore
SplineSet
429 540 m 1
 489 452 l 1
 135 209 l 1
 79 302 l 1
 429 540 l 1
EndSplineSet
Refer: 145 108 N 1 0 0 1 117 0 2
Validated: 5
EndChar

StartChar: m
Encoding: 109 109 149
GlifName: m
Width: 684
VWidth: 0
GlyphClass: 2
Flags: HMW
LayerCount: 2
Back
Fore
SplineSet
280 0 m 1
 346 372 l 2
 347 375 343 398 313 398 c 2
 307 398 l 1
 329 519 l 1
 335 519 l 2
 377 519 406 505 428 486 c 1
 457 506 491 519 533 519 c 2
 539 519 l 1
 517 398 l 1
 511 398 l 2
 480 398 470 374 470 372 c 2
 404 0 l 1
 280 0 l 1
596 372 m 2
 597 375 594 398 564 398 c 2
 558 398 l 1
 580 519 l 1
 586 519 l 2
 692 519 728 422 720 377 c 2
 654 0 l 1
 530 0 l 1
 596 372 l 2
220 372 m 2
 154 0 l 1
 30 0 l 1
 96 377 l 2
 104 425 176 519 281 519 c 2
 287 519 l 1
 265 398 l 1
 259 398 l 2
 229 398 220 374 220 372 c 2
EndSplineSet
Validated: 33
EndChar

StartChar: mu
Encoding: 181 181 152
GlifName: mu
Width: 468
VWidth: 0
GlyphClass: 2
Flags: HMW
LayerCount: 2
Back
Fore
SplineSet
399 700 m 1
 523 700 l 1
 523 698 l 1
 458 328 l 2
 457 325 459 302 490 302 c 2
 495 302 l 1
 474 181 l 1
 469 181 l 2
 429 181 399 194 377 213 c 1
 347 193 312 179 271 179 c 2
 266 179 l 1
 287 300 l 1
 292 300 l 2
 323 300 333 324 333 326 c 2
 399 698 l 1
 399 700 l 1
149 698 m 1
 273 698 l 1
 213 356 l 1
 207 326 l 2
 206 323 209 300 240 300 c 2
 245 300 l 1
 224 179 l 1
 219 179 l 2
 206 179 193 180 182 183 c 1
 150 0 l 1
 26 0 l 1
 83 321 l 1
 89 356 l 1
 149 698 l 1
EndSplineSet
Validated: 33
EndChar

StartChar: multiply
Encoding: 215 215 153
GlifName: multiply
Width: 697
VWidth: 0
GlyphClass: 2
Flags: HMW
LayerCount: 2
Back
Fore
SplineSet
334 417 m 1
 202 578 l 1
 307 667 l 1
 438 507 l 1
 625 666 l 1
 699 577 l 1
 512 418 l 1
 643 259 l 1
 537 170 l 1
 407 328 l 1
 220 168 l 1
 146 257 l 1
 334 417 l 1
EndSplineSet
Validated: 1
EndChar

StartChar: n
Encoding: 110 110 154
GlifName: n
Width: 434
VWidth: 0
GlyphClass: 2
Flags: HMW
LayerCount: 2
Back
Fore
SplineSet
220 372 m 2
 154 0 l 1
 30 0 l 1
 96 377 l 2
 104 425 176 519 283 519 c 2
 288 519 l 1
 266 398 l 1
 261 398 l 2
 230 398 220 374 220 372 c 2
346 372 m 2
 347 375 343 398 313 398 c 2
 308 398 l 1
 330 519 l 1
 335 519 l 2
 442 519 478 422 470 377 c 2
 404 0 l 1
 280 0 l 1
 346 372 l 2
EndSplineSet
Validated: 33
EndChar

StartChar: nine
Encoding: 57 57 155
GlifName: nine
Width: 504
VWidth: 0
GlyphClass: 2
Flags: HMW
LayerCount: 2
Back
Fore
SplineSet
272 2 m 1
 294 127 l 1
 369 142 393 248 402 300 c 1
 380 285 350 274 320 274 c 1
 341 392 l 1
 342 392 l 1
 363 397 412 413 426 490 c 0
 433 529 410 571 373 575 c 1
 395 700 l 1
 570 700 568 513 538 341 c 0
 517 224 445 6 272 2 c 1
173 178 m 1
 190 150 198 132 240 127 c 1
 218 1 l 1
 140 1 85 51 63 115 c 1
 173 178 l 1
266 274 m 1
 142 274 90 359 112 485 c 0
 134 610 240 699 341 700 c 1
 320 576 l 1
 284 572 241 540 232 491 c 0
 218 409 268 395 286 390 c 1
 266 274 l 1
EndSplineSet
Validated: 33
EndChar

StartChar: numbersign
Encoding: 35 35 157
GlifName: numbersign
Width: 888
VWidth: 0
GlyphClass: 2
Flags: HMW
LayerCount: 2
Back
Fore
SplineSet
578 404 m 1
 473 404 l 1
 435 297 l 1
 541 296 l 1
 578 404 l 1
339 22 m 1
 218 22 l 1
 272 176 l 1
 132 176 l 1
 178 297 l 1
 315 297 l 1
 352 404 l 1
 206 404 l 1
 250 525 l 1
 396 525 l 1
 450 682 l 1
 571 682 l 1
 515 524 l 1
 621 524 l 1
 676 682 l 1
 797 682 l 1
 741 524 l 1
 879 524 l 1
 839 403 l 1
 699 404 l 1
 661 296 l 1
 804 296 l 1
 765 175 l 1
 619 176 l 1
 565 22 l 1
 445 22 l 1
 498 176 l 1
 393 176 l 1
 339 22 l 1
EndSplineSet
Validated: 1
EndChar

StartChar: o
Encoding: 111 111 158
GlifName: o
Width: 420
VWidth: 0
GlyphClass: 2
Flags: HMW
LayerCount: 2
Back
Fore
SplineSet
303 398 m 1
 324 516 l 1
 330 516 l 2
 433 516 466 421 458 376 c 2
 417 141 l 2
 409 96 343 -1 239 -1 c 2
 233 -1 l 1
 254 117 l 1
 260 117 l 2
 291 118 300 141 302 152 c 2
 339 363 l 2
 342 380 339 398 309 398 c 2
 303 398 l 1
94 376 m 2
 102 421 170 516 277 516 c 2
 283 516 l 1
 262 398 l 1
 256 398 l 2
 223 398 214 373 212 363 c 2
 175 154 l 2
 172 135 177 117 207 117 c 2
 213 117 l 1
 192 -1 l 1
 186 -1 l 2
 78 -1 45 97 53 141 c 2
 94 376 l 2
EndSplineSet
Validated: 33
EndChar

StartChar: oe
Encoding: 283 339 162
GlifName: oe
Width: 671
VWidth: 0
GlyphClass: 2
Flags: HMW
LayerCount: 2
Back
Fore
SplineSet
92 376 m 2
 100 421 168 516 275 516 c 2
 281 516 l 1
 260 398 l 1
 254 398 l 2
 221 398 212 374 212 373 c 2
 171 142 l 2
 170 139 174 113 204 113 c 2
 210 113 l 1
 190 -1 l 1
 184 -1 l 2
 76 -1 43 97 51 141 c 2
 92 376 l 2
558 402 m 2
 554 402 l 1
 574 516 l 1
 580 516 l 2
 650 516 724 450 711 378 c 2
 681 208 l 1
 432 208 l 1
 420 141 l 2
 419 138 421 109 449 108 c 2
 508 108 l 2
 538 108 564 132 572 153 c 2
 574 157 l 1
 666 120 l 1
 665 118 l 1
 639 54 559 0 489 0 c 2
 430 0 l 2
 390 0 361 14 340 34 c 1
 312 14 277 -1 237 -1 c 2
 231 -1 l 1
 251 113 l 1
 257 113 l 2
 288 114 298 138 298 140 c 2
 339 372 l 2
 340 375 337 398 307 398 c 2
 301 398 l 1
 322 516 l 1
 328 516 l 2
 368 516 398 502 418 482 c 1
 447 502 481 516 520 516 c 2
 525 516 l 1
 505 400 l 1
 502 400 l 2
 473 400 462 380 460 369 c 2
 452 324 l 1
 587 324 l 1
 595 369 l 2
 600 396 578 402 558 402 c 2
EndSplineSet
Validated: 33
EndChar

StartChar: one
Encoding: 49 49 164
GlifName: one
Width: 266
VWidth: 0
GlyphClass: 2
Flags: HMW
LayerCount: 2
Back
Fore
SplineSet
194 499 m 1
 107 439 l 1
 143 640 l 1
 229 699 l 1
 359 699 l 1
 236 0 l 1
 106 0 l 1
 194 499 l 1
EndSplineSet
Validated: 1
EndChar

StartChar: onehalf
Encoding: 189 189 165
GlifName: onehalf
Width: 581
VWidth: 0
GlyphClass: 2
Flags: HMW
LayerCount: 2
Back
Fore
SplineSet
219 597 m 1
 176 567 l 1
 194 671 l 1
 238 702 l 1
 306 702 l 1
 244 349 l 1
 176 349 l 1
 219 597 l 1
499 288 m 1
 510 354 l 1
 515 354 l 2
 593 354 604 290 598 251 c 0
 588 197 561 180 527 159 c 0
 488 134 466 119 444 93 c 2
 443 92 l 1
 364 92 l 1
 366 94 l 1
 407 156 462 184 479 196 c 0
 505 215 529 220 534 251 c 0
 538 275 527 287 500 288 c 2
 499 288 l 1
562 65 m 1
 551 -1 l 1
 346 -1 l 1
 357 65 l 1
 562 65 l 1
26 -2 m 1
 582 702 l 1
 658 702 l 1
 109 -2 l 1
 26 -2 l 1
473 288 m 2
 471 287 449 278 444 250 c 1
 444 248 l 1
 383 261 l 1
 384 263 l 1
 397 306 435 347 484 353 c 1
 486 354 l 1
 475 290 l 1
 475 288 l 1
 473 288 l 2
EndSplineSet
Validated: 33
EndChar

StartChar: onequarter
Encoding: 188 188 166
GlifName: onequarter
Width: 560
VWidth: 0
GlyphClass: 2
Flags: HMW
LayerCount: 2
Back
Fore
SplineSet
26 -2 m 1
 582 702 l 1
 658 702 l 1
 109 -2 l 1
 26 -2 l 1
392 137 m 1
 381 71 l 1
 283 71 l 1
 294 137 l 1
 422 305 l 1
 399 175 l 1
 370 137 l 1
 392 137 l 1
512 137 m 1
 501 71 l 1
 474 71 l 1
 461 -1 l 1
 393 -1 l 1
 455 352 l 1
 523 352 l 1
 485 137 l 1
 512 137 l 1
218 597 m 1
 175 567 l 1
 193 671 l 1
 238 702 l 1
 305 702 l 1
 243 349 l 1
 175 349 l 1
 218 597 l 1
EndSplineSet
Validated: 1
EndChar

StartChar: ordfeminine
Encoding: 170 170 167
GlifName: ordfeminine
Width: 227
VWidth: 0
GlyphClass: 2
Flags: HMW
LayerCount: 2
Back
Fore
SplineSet
240 701 m 1
 243 701 l 2
 289 701 305 659 301 639 c 2
 282 535 l 2
 282 533 281 523 289 523 c 2
 292 523 l 1
 283 471 l 1
 280 471 l 2
 264 471 252 476 244 483 c 1
 232 475 219 471 203 471 c 2
 200 471 l 1
 209 523 l 1
 212 523 l 2
 224 523 229 536 229 537 c 2
 234 569 l 1
 213 559 183 554 176 551 c 0
 174 550 172 547 171 543 c 2
 170 537 l 2
 169 529 170 523 181 523 c 2
 191 523 l 1
 182 471 l 1
 180 471 l 2
 137 471 115 494 120 520 c 2
 125 551 l 2
 128 566 132 575 153 586 c 0
 175 598 241 610 244 626 c 2
 245 631 l 2
 247 641 247 648 233 649 c 1
 231 650 l 1
 240 701 l 1
210 649 m 2
 201 648 194 643 191 627 c 2
 190 623 l 1
 144 642 l 1
 145 644 l 1
 151 676 189 701 220 701 c 2
 223 701 l 1
 213 649 l 1
 210 649 l 2
102 430 m 1
 277 430 l 1
 265 362 l 1
 90 362 l 1
 102 430 l 1
EndSplineSet
Validated: 33
EndChar

StartChar: ordmasculine
Encoding: 186 186 168
GlifName: ordmasculine
Width: 230
VWidth: 0
GlyphClass: 2
Flags: HMW
LayerCount: 2
Back
Fore
SplineSet
144 637 m 2
 148 658 178 700 226 700 c 2
 231 700 l 1
 222 645 l 1
 217 645 l 2
 204 645 200 636 200 635 c 2
 182 534 l 2
 182 533 184 525 196 525 c 2
 201 525 l 1
 191 470 l 1
 186 470 l 2
 137 470 122 513 126 533 c 2
 144 637 l 2
237 645 m 1
 246 700 l 1
 250 700 l 2
 296 700 312 658 308 637 c 2
 290 533 l 2
 286 513 257 470 210 470 c 2
 206 470 l 1
 215 523 l 1
 219 523 l 2
 231 523 235 532 235 533 c 2
 253 635 l 2
 253 636 253 645 241 645 c 2
 237 645 l 1
102 432 m 1
 280 432 l 1
 268 361 l 1
 90 361 l 1
 102 432 l 1
EndSplineSet
Validated: 33
EndChar

StartChar: oslash
Encoding: 248 248 169
GlifName: oslash
Width: 498
VWidth: 0
GlyphClass: 2
Flags: HMW
LayerCount: 2
Back
Fore
SplineSet
531 490 m 1
 574 430 l 1
 496 369 l 1
 456 141 l 2
 448 96 382 -1 278 -1 c 2
 272 -1 l 1
 293 117 l 1
 299 117 l 2
 330 118 339 141 341 152 c 2
 360 261 l 1
 214 145 l 1
 213 130 221 117 246 117 c 2
 252 117 l 1
 231 -1 l 1
 225 -1 l 2
 165 -1 128 29 109 63 c 1
 57 22 l 1
 14 82 l 1
 92 143 l 1
 133 376 l 2
 141 421 209 516 316 516 c 2
 322 516 l 1
 301 398 l 1
 295 398 l 2
 262 398 253 373 251 363 c 2
 232 253 l 1
 379 370 l 1
 379 384 374 398 348 398 c 2
 342 398 l 1
 363 516 l 1
 369 516 l 2
 427 516 464 486 482 451 c 1
 531 490 l 1
EndSplineSet
Validated: 33
EndChar

StartChar: p
Encoding: 112 112 171
GlifName: p
Width: 422
VWidth: 0
GlyphClass: 2
Flags: HMW
LayerCount: 2
Back
Fore
SplineSet
121 516 m 1
 246 516 l 1
 123 -182 l 1
 -2 -182 l 1
 121 516 l 1
232 0 m 2
 203 0 l 1
 224 118 l 1
 255 118 l 2
 292 119 299 134 301 143 c 2
 342 372 l 2
 344 385 328 398 298 398 c 2
 266 398 l 1
 287 516 l 1
 319 516 l 2
 426 516 472 431 462 375 c 2
 421 139 l 2
 412 86 345 0 232 0 c 2
EndSplineSet
Validated: 33
EndChar

StartChar: paragraph
Encoding: 182 182 172
GlifName: paragraph
Width: 444
VWidth: 0
GlyphClass: 2
Flags: HMW
LayerCount: 2
Back
Fore
SplineSet
542 705 m 1
 417 -5 l 1
 334 -5 l 1
 459 705 l 1
 542 705 l 1
402 705 m 1
 277 -5 l 1
 194 -5 l 1
 253 329 l 1
 149 329 97 403 117 517 c 0
 135 617 217 705 319 705 c 0
 347 705 374 705 402 705 c 1
EndSplineSet
Validated: 33
EndChar

StartChar: parenleft
Encoding: 40 40 173
GlifName: parenleft
Width: 262
VWidth: 0
GlyphClass: 2
Flags: HMW
LayerCount: 2
Back
Fore
SplineSet
342 735 m 1
 327 648 l 1
 284 625 259 593 245 521 c 2
 190 208 l 2
 190 206 189 204 189 202 c 0
 172 104 191 73 222 51 c 1
 206 -37 l 1
 74 22 66 93 83 189 c 2
 140 510 l 2
 165 652 236 696 342 735 c 1
EndSplineSet
Validated: 33
EndChar

StartChar: parenright
Encoding: 41 41 174
GlifName: parenright
Width: 330
VWidth: 0
GlyphClass: 2
Flags: HMW
LayerCount: 2
Back
Fore
SplineSet
233 746 m 1
 334 706 395 650 370 510 c 2
 313 189 l 2
 296 93 245 9 93 -47 c 1
 110 51 l 1
 149 73 180 104 197 202 c 0
 197 204 198 206 198 208 c 2
 253 521 l 2
 265 593 249 626 214 649 c 1
 233 746 l 1
EndSplineSet
Validated: 33
EndChar

StartChar: period
Encoding: 46 46 175
GlifName: period
Width: 250
VWidth: 0
GlyphClass: 2
Flags: HMW
LayerCount: 2
Back
Fore
SplineSet
59 53 m 0
 66 95 106 129 148 129 c 0
 190 129 216 95 209 53 c 0
 202 11 163 -22 121 -22 c 0
 79 -22 52 11 59 53 c 0
EndSplineSet
Validated: 33
EndChar

StartChar: perthousand
Encoding: 284 8240 177
GlifName: perthousand
Width: 897
VWidth: 0
GlyphClass: 2
Flags: HMW
LayerCount: 2
Back
Fore
SplineSet
810 352 m 1
 799 287 l 1
 797 287 l 1
 771 281 760 233 754 201 c 2
 749 171 l 2
 741 125 732 71 757 65 c 1
 758 65 l 1
 747 0 l 1
 745 0 l 2
 711 2 656 28 682 178 c 0
 705 306 761 349 808 352 c 2
 810 352 l 1
838 352 m 2
 883 349 926 307 903 178 c 0
 877 28 811 2 777 0 c 2
 775 0 l 1
 786 65 l 1
 787 65 l 1
 814 71 826 125 834 171 c 2
 839 201 l 2
 845 233 851 281 827 287 c 1
 825 287 l 1
 836 352 l 1
 838 352 l 2
552 352 m 1
 541 287 l 1
 539 287 l 1
 513 281 502 233 496 201 c 2
 491 171 l 2
 483 125 474 71 499 65 c 1
 500 65 l 1
 489 0 l 1
 487 0 l 2
 453 2 398 28 424 178 c 0
 447 306 503 349 550 352 c 2
 552 352 l 1
580 352 m 2
 625 349 668 307 645 178 c 0
 619 28 553 2 519 0 c 2
 517 0 l 1
 528 65 l 1
 529 65 l 1
 556 71 568 125 576 171 c 2
 581 201 l 2
 587 233 593 281 569 287 c 1
 567 287 l 1
 578 352 l 1
 580 352 l 2
246 703 m 1
 234 637 l 1
 233 637 l 1
 207 631 197 583 191 551 c 2
 186 522 l 2
 178 476 169 421 194 415 c 1
 195 415 l 1
 184 350 l 1
 182 351 l 1
 148 353 93 378 119 528 c 0
 142 656 198 699 245 702 c 1
 246 703 l 1
275 702 m 1
 320 699 362 657 339 528 c 0
 313 378 248 353 214 351 c 1
 212 350 l 1
 223 415 l 1
 224 415 l 1
 251 421 262 476 270 522 c 2
 275 551 l 2
 281 583 287 631 263 637 c 1
 262 637 l 1
 274 703 l 1
 275 702 l 1
67 0 m 1
 620 700 l 1
 693 700 l 1
 147 0 l 1
 67 0 l 1
EndSplineSet
Validated: 33
EndChar

StartChar: plus
Encoding: 43 43 178
GlifName: plus
Width: 475
VWidth: 0
GlyphClass: 2
Flags: HMW
LayerCount: 2
Back
Fore
SplineSet
488 357 m 1
 466 230 l 1
 341 230 l 1
 315 87 l 1
 188 87 l 1
 214 230 l 1
 91 230 l 1
 113 357 l 1
 236 357 l 1
 261 498 l 1
 388 498 l 1
 363 357 l 1
 488 357 l 1
EndSplineSet
Validated: 1
EndChar

StartChar: q
Encoding: 113 113 180
GlifName: q
Width: 416
VWidth: 0
GlyphClass: 2
Flags: HMW
LayerCount: 2
Back
Fore
SplineSet
476 516 m 1
 354 -182 l 1
 230 -182 l 1
 352 516 l 1
 476 516 l 1
171 143 m 2
 171 141 171 119 209 118 c 2
 240 118 l 1
 219 0 l 1
 190 0 l 2
 77 0 44 93 51 139 c 2
 92 375 l 2
 100 420 167 516 274 516 c 2
 305 516 l 1
 284 398 l 1
 253 398 l 2
 221 398 212 375 212 373 c 2
 171 143 l 2
EndSplineSet
Validated: 33
EndChar

StartChar: question
Encoding: 63 63 181
GlifName: question
Width: 460
VWidth: 0
GlyphClass: 2
Flags: HMW
LayerCount: 2
Back
Fore
SplineSet
205 526 m 1
 138 611 l 1
 175 649 234 703 342 703 c 0
 470 703 536 620 517 491 c 0
 516 488 516 484 515 481 c 0
 481 289 312 276 312 276 c 1
 292 166 l 1
 163 166 l 1
 202 386 l 1
 319 388 373 400 389 493 c 0
 398 545 358 575 311 575 c 0
 268 575 231 554 205 526 c 1
131 53 m 0
 138 95 178 129 220 129 c 0
 262 129 289 95 282 53 c 0
 275 11 235 -22 193 -22 c 0
 151 -22 124 11 131 53 c 0
EndSplineSet
Validated: 33
EndChar

StartChar: questiondown
Encoding: 191 191 182
GlifName: questiondown
Width: 460
VWidth: 0
GlyphClass: 2
Flags: HMW
LayerCount: 2
Back
Fore
SplineSet
234 636 m 0
 241 678 280 711 322 711 c 0
 364 711 392 678 385 636 c 0
 378 594 338 560 296 560 c 0
 254 560 227 594 234 636 c 0
141 163 m 1
 157 135 187 114 230 114 c 0
 277 114 328 144 337 196 c 0
 353 289 304 301 187 303 c 1
 226 523 l 1
 355 523 l 1
 336 413 l 1
 336 413 501 400 467 208 c 0
 443 72 347 -14 216 -14 c 0
 108 -14 67 40 44 78 c 1
 141 163 l 1
EndSplineSet
Validated: 33
EndChar

StartChar: quotedbl
Encoding: 34 34 183
GlifName: quotedbl
Width: 407
VWidth: 0
GlyphClass: 2
Flags: HMW
LayerCount: 2
Back
Fore
SplineSet
439 465 m 1
 312 465 l 1
 360 736 l 1
 487 736 l 1
 439 465 l 1
259 465 m 1
 132 465 l 1
 180 736 l 1
 307 736 l 1
 259 465 l 1
EndSplineSet
Validated: 1
EndChar

StartChar: quotedbl.alt
Encoding: 285 -1 184
GlifName: quotedbl.alt
Width: 359
VWidth: 0
GlyphClass: 2
Flags: HMW
LayerCount: 2
Back
Fore
SplineSet
417 476 m 1
 290 476 l 1
 329 700 l 1
 456 700 l 1
 417 476 l 1
237 476 m 1
 110 476 l 1
 149 700 l 1
 276 700 l 1
 237 476 l 1
EndSplineSet
Validated: 1
EndChar

StartChar: quotesingle
Encoding: 39 39 191
GlifName: quotesingle
Width: 227
VWidth: 0
GlyphClass: 2
Flags: HMW
LayerCount: 2
Back
Fore
SplineSet
259 465 m 1
 132 465 l 1
 180 736 l 1
 307 736 l 1
 259 465 l 1
EndSplineSet
Validated: 1
EndChar

StartChar: r
Encoding: 114 114 192
GlifName: r
Width: 316
VWidth: 0
GlyphClass: 2
Flags: HMW
LayerCount: 2
Back
Fore
SplineSet
127 516 m 1
 251 516 l 1
 240 454 l 1
 266 481 320 516 375 516 c 2
 385 516 l 1
 359 395 l 1
 292 394 219 331 208 271 c 2
 160 0 l 1
 36 0 l 1
 127 516 l 1
EndSplineSet
Validated: 1
EndChar

StartChar: registered
Encoding: 174 174 193
GlifName: registered
Width: 404
VWidth: 0
GlyphClass: 2
Flags: HMW
LayerCount: 2
Back
Fore
SplineSet
262 627 m 1
 301 627 l 1
 266 430 l 1
 227 430 l 1
 262 627 l 1
302 547 m 1
 306 547 l 2
 323 547 332 557 334 568 c 0
 336 582 328 591 314 591 c 2
 310 591 l 1
 317 628 l 1
 359 628 377 604 371 570 c 0
 368 551 358 538 344 530 c 1
 353 522 358 506 357 492 c 2
 346 431 l 1
 311 431 l 1
 320 481 l 2
 324 504 316 511 296 511 c 1
 302 547 l 1
281 396 m 1
 347 399 413 456 427 525 c 0
 427 526 427 526 427 527 c 0
 441 608 387 662 328 662 c 1
 335 703 l 1
 401 702 487 641 467 528 c 0
 467 526 466 525 466 523 c 0
 448 423 351 357 273 354 c 1
 281 396 l 1
261 396 m 1
 254 354 l 1
 173 355 106 432 122 523 c 0
 122 524 123 524 123 525 c 0
 145 649 257 703 317 703 c 0
 318 703 318 703 319 703 c 2
 312 662 l 1
 253 662 178 609 163 526 c 0
 152 457 197 399 261 396 c 1
EndSplineSet
Validated: 33
EndChar

StartChar: ring
Encoding: 292 730 194
GlifName: ring
Width: 244
VWidth: 0
GlyphClass: 2
Flags: HMW
LayerCount: 2
Back
Fore
SplineSet
119 526 m 0
 128 579 179 622 232 622 c 0
 285 622 320 579 311 526 c 0
 302 473 251 430 198 430 c 0
 145 430 110 473 119 526 c 0
183 526 m 0
 180 508 191 494 209 494 c 0
 227 494 244 508 247 526 c 0
 250 544 238 558 220 558 c 0
 202 558 186 544 183 526 c 0
EndSplineSet
Validated: 33
EndChar

StartChar: s
Encoding: 115 115 195
GlifName: s
Width: 418
VWidth: 0
GlyphClass: 2
Flags: HMW
LayerCount: 2
Back
Fore
SplineSet
254 406 m 1
 252 406 l 1
 211 402 205 377 202 362 c 0
 199 344 210 323 346 296 c 0
 396 286 440 243 425 160 c 0
 407 57 320 -5 227 -5 c 2
 224 -5 l 1
 244 109 l 1
 247 109 l 2
 262 110 301 120 307 153 c 0
 315 198 204 206 152 232 c 0
 107 256 76 287 91 371 c 0
 109 473 216 517 270 517 c 2
 273 517 l 1
 254 406 l 1
454 376 m 1
 454 374 l 1
 339 355 l 1
 339 358 l 2
 342 399 305 404 297 404 c 2
 294 404 l 1
 315 517 l 1
 318 517 l 2
 412 517 465 440 454 376 c 1
46 134 m 1
 45 136 l 1
 161 157 l 1
 160 154 l 1
 159 135 177 113 201 111 c 1
 203 110 l 1
 183 -5 l 1
 180 -5 l 2
 86 -5 38 70 46 134 c 1
EndSplineSet
Validated: 33
EndChar

StartChar: section
Encoding: 167 167 197
GlifName: section
Width: 547
VWidth: 0
GlyphClass: 2
Flags: HMW
LayerCount: 2
Back
Fore
SplineSet
399 759 m 2
 511 759 l 1
 488 627 l 1
 384 627 l 2
 351 627 326 606 321 576 c 0
 317 555 325 540 339 527 c 1
 312 372 l 1
 300 377 288 381 279 386 c 0
 271 391 263 395 255 400 c 1
 244 392 234 380 230 357 c 0
 222 314 255 290 294 272 c 1
 268 125 l 1
 239 138 207 150 183 166 c 0
 128 202 70 249 88 351 c 0
 99 413 136 465 186 499 c 1
 183 519 184 543 189 571 c 0
 214 710 331 759 399 759 c 2
402 223 m 1
 413 231 423 243 427 266 c 0
 435 310 402 333 362 351 c 1
 388 498 l 1
 417 485 449 473 474 457 c 0
 529 421 587 374 569 272 c 0
 558 210 521 158 471 124 c 1
 474 104 473 80 468 52 c 0
 443 -87 326 -136 258 -136 c 2
 146 -136 l 1
 169 -4 l 1
 273 -4 l 2
 306 -4 331 17 336 47 c 0
 340 68 332 84 317 97 c 1
 344 252 l 1
 356 247 368 242 378 237 c 0
 386 232 394 228 402 223 c 1
EndSplineSet
Validated: 33
EndChar

StartChar: semicolon
Encoding: 59 59 198
GlifName: semicolon
Width: 291
VWidth: 0
GlyphClass: 2
Flags: HMW
LayerCount: 2
Back
Fore
SplineSet
173 -23 m 1
 46 -23 l 1
 110 129 l 1
 237 129 l 1
 173 -23 l 1
154 360 m 0
 161 402 201 436 243 436 c 0
 285 436 311 402 304 360 c 0
 297 318 258 285 216 285 c 0
 174 285 147 318 154 360 c 0
EndSplineSet
Validated: 33
EndChar

StartChar: seven
Encoding: 55 55 199
GlifName: seven
Width: 435
VWidth: 0
GlyphClass: 2
Flags: HMW
LayerCount: 2
Back
Fore
SplineSet
302 450 m 1
 435 450 l 1
 370 300 316 154 273 0 c 1
 136 0 l 1
 181 158 233 295 302 450 c 1
143 698 m 1
 532 698 l 1
 510 573 l 1
 496 562 471 529 461 510 c 1
 326 510 l 1
 361 572 l 1
 121 572 l 1
 143 698 l 1
EndSplineSet
Validated: 1
EndChar

StartChar: six
Encoding: 54 54 200
GlifName: six
Width: 497
VWidth: 0
GlyphClass: 2
Flags: HMW
LayerCount: 2
Back
Fore
SplineSet
351 697 m 1
 329 572 l 1
 265 565 229 448 220 399 c 1
 242 414 273 425 303 425 c 1
 282 307 l 1
 281 307 l 1
 260 302 211 286 197 209 c 0
 190 170 213 128 250 124 c 1
 228 -1 l 1
 53 -1 59 186 89 358 c 0
 110 475 174 675 351 697 c 1
450 537 m 1
 438 559 422 573 394 573 c 0
 390 573 387 573 383 573 c 2
 405 698 l 1
 483 698 531 659 556 600 c 1
 450 537 l 1
357 425 m 1
 481 425 529 327 508 209 c 0
 486 84 383 0 282 -1 c 1
 304 123 l 1
 340 127 384 159 393 208 c 0
 407 290 355 304 337 309 c 1
 357 425 l 1
EndSplineSet
Validated: 33
EndChar

StartChar: slash
Encoding: 47 47 201
GlifName: slash
Width: 401
VWidth: 0
GlyphClass: 2
Flags: HMW
LayerCount: 2
Back
Fore
SplineSet
46 -23 m 1
 351 716 l 1
 477 716 l 1
 173 -23 l 1
 46 -23 l 1
EndSplineSet
Validated: 1
EndChar

StartChar: sterling
Encoding: 163 163 203
GlifName: sterling
Width: 520
VWidth: 0
GlyphClass: 2
Flags: HMW
LayerCount: 2
Back
Fore
SplineSet
463 520 m 1
 458 551 444 584 400 584 c 0
 368 584 339 568 330 517 c 2
 309 396 l 1
 448 396 l 1
 429 289 l 1
 289 289 l 1
 257 108 l 1
 481 108 l 1
 462 0 l 1
 106 0 l 1
 157 288 l 1
 101 288 l 1
 120 395 l 1
 176 395 l 1
 197 514 l 2
 215 617 285 705 415 705 c 0
 416 705 416 705 417 705 c 0
 445 705 469 700 488 691 c 0
 542 668 568 618 571 570 c 1
 463 520 l 1
EndSplineSet
Validated: 1
EndChar

StartChar: t
Encoding: 116 116 204
GlifName: t
Width: 324
VWidth: 0
GlyphClass: 2
Flags: HMW
LayerCount: 2
Back
Fore
SplineSet
261 125 m 2
 300 125 l 1
 276 0 l 1
 238 0 l 2
 116 1 96 66 114 168 c 2
 154 398 l 1
 91 398 l 1
 112 516 l 1
 175 516 l 1
 207 700 l 1
 329 700 l 1
 297 516 l 1
 357 516 l 1
 336 398 l 1
 276 398 l 1
 234 159 l 2
 232 145 233 126 261 125 c 2
EndSplineSet
Validated: 33
EndChar

StartChar: thorn
Encoding: 254 254 205
GlifName: thorn
Width: 422
VWidth: 0
GlyphClass: 2
Flags: HMW
LayerCount: 2
Back
Fore
SplineSet
153 700 m 1
 278 700 l 1
 123 -182 l 1
 -2 -182 l 1
 153 700 l 1
232 0 m 2
 203 0 l 1
 224 118 l 1
 255 118 l 2
 292 119 299 134 301 143 c 2
 342 372 l 2
 344 385 328 398 298 398 c 2
 266 398 l 1
 287 516 l 1
 319 516 l 2
 426 516 472 431 462 375 c 2
 421 139 l 2
 412 86 345 0 232 0 c 2
EndSplineSet
Validated: 33
EndChar

StartChar: three
Encoding: 51 51 206
GlifName: three
Width: 484
VWidth: 0
GlyphClass: 2
Flags: HMW
LayerCount: 2
Back
Fore
SplineSet
160 160 m 1
 170 139 188 127 217 125 c 1
 195 -1 l 1
 117 -1 65 30 43 97 c 1
 160 160 l 1
276 122 m 1
 319 122 355 161 362 201 c 0
 373 261 356 286 238 286 c 1
 260 410 l 1
 380 410 404 439 415 499 c 0
 425 553 387 574 357 574 c 0
 356 574 354 574 353 574 c 2
 375 698 l 1
 508 695 556 582 543 508 c 0
 526 411 487 366 453 350 c 1
 478 331 508 284 493 199 c 0
 471 75 337 0 257 0 c 0
 256 0 256 0 255 0 c 2
 276 122 l 1
227 537 m 1
 132 600 l 1
 175 656 240 698 318 698 c 1
 296 572 l 1
 267 570 245 558 227 537 c 1
EndSplineSet
Validated: 33
EndChar

StartChar: threequarters
Encoding: 190 190 207
GlifName: threequarters
Width: 584
VWidth: 0
GlyphClass: 2
Flags: HMW
LayerCount: 2
Back
Fore
SplineSet
50 -2 m 1
 606 702 l 1
 682 702 l 1
 133 -2 l 1
 50 -2 l 1
416 137 m 1
 405 71 l 1
 307 71 l 1
 318 137 l 1
 446 305 l 1
 423 175 l 1
 394 137 l 1
 416 137 l 1
536 137 m 1
 525 71 l 1
 498 71 l 1
 485 -1 l 1
 417 -1 l 1
 479 352 l 1
 547 352 l 1
 509 137 l 1
 536 137 l 1
191 616 m 1
 140 649 l 1
 142 651 l 1
 164 679 197 700 237 700 c 1
 226 635 l 1
 225 635 l 2
 211 634 201 628 192 618 c 2
 191 616 l 1
215 412 m 2
 236 412 253 431 256 450 c 0
 261 479 254 492 195 492 c 1
 206 557 l 1
 207 557 l 2
 267 557 278 571 283 600 c 0
 288 626 269 636 255 636 c 2
 252 636 l 1
 264 701 l 1
 264 700 l 1
 332 698 357 642 350 604 c 0
 342 557 324 534 307 525 c 1
 320 514 331 491 324 450 c 0
 313 387 246 348 205 348 c 2
 202 348 l 1
 214 412 l 1
 215 412 l 2
159 431 m 2
 164 421 172 415 186 414 c 2
 187 414 l 1
 175 348 l 1
 174 348 l 2
 135 348 108 364 97 398 c 1
 96 399 l 1
 158 432 l 1
 159 431 l 2
EndSplineSet
Validated: 33
EndChar

StartChar: tilde
Encoding: 294 732 208
GlifName: tilde
Width: 333
VWidth: 0
GlyphClass: 2
Flags: HMW
LayerCount: 2
Back
Fore
SplineSet
327 114 m 1
 289 93 261 86 238 86 c 0
 185 86 162 126 114 126 c 0
 96 126 73 120 44 104 c 1
 62 206 l 1
 93 222 117 228 136 228 c 0
 187 228 209 187 260 187 c 0
 282 187 308 195 345 215 c 1
 327 114 l 1
EndSplineSet
Validated: 1
EndChar

StartChar: two
Encoding: 50 50 209
GlifName: two
Width: 480
VWidth: 0
GlyphClass: 2
Flags: HMW
LayerCount: 2
Back
Fore
SplineSet
346 574 m 1
 368 700 l 2
 370 700 373 700 375 700 c 0
 529 700 554 574 541 497 c 0
 541 496 540 495 540 494 c 0
 522 390 467 358 398 315 c 0
 318 265 272 232 229 179 c 1
 77 179 l 1
 159 302 269 359 303 384 c 0
 353 421 405 433 417 495 c 0
 417 496 418 496 418 497 c 0
 427 547 401 572 346 574 c 1
313 699 m 1
 291 573 l 2
 290 573 240 557 229 495 c 1
 116 520 l 1
 140 604 216 687 313 699 c 1
469 127 m 1
 447 0 l 1
 43 0 l 1
 65 127 l 1
 469 127 l 1
EndSplineSet
Validated: 33
EndChar

StartChar: u
Encoding: 117 117 210
GlifName: u
Width: 434
VWidth: 0
GlyphClass: 2
Flags: HMW
LayerCount: 2
Back
Fore
SplineSet
121 514 m 1
 245 514 l 1
 179 142 l 2
 178 139 180 116 211 116 c 2
 216 116 l 1
 195 -5 l 1
 190 -5 l 2
 83 -5 46 89 54 137 c 2
 121 514 l 1
258 116 m 1
 263 116 l 2
 294 116 305 140 305 142 c 2
 371 514 l 1
 495 514 l 1
 428 137 l 2
 420 92 349 -5 242 -5 c 2
 237 -5 l 1
 258 116 l 1
EndSplineSet
Validated: 33
EndChar

StartChar: underscore
Encoding: 95 95 215
GlifName: underscore
Width: 510
VWidth: 0
GlyphClass: 2
Flags: HMW
LayerCount: 2
Back
Fore
SplineSet
444 -205 m 1
 -6 -205 l 1
 13 -98 l 1
 463 -98 l 1
 444 -205 l 1
EndSplineSet
Validated: 1
EndChar

StartChar: uni00B2
Encoding: 178 178 218
GlifName: uni00B_2
Width: 245
VWidth: 0
GlyphClass: 2
Flags: HMW
LayerCount: 2
Back
Fore
SplineSet
235 639 m 1
 245 700 l 1
 252 700 l 2
 321 700 332 643 326 609 c 0
 317 560 292 546 263 527 c 0
 228 505 210 493 192 471 c 1
 191 469 l 1
 117 469 l 1
 121 475 l 2
 157 529 204 553 218 563 c 0
 241 580 262 584 266 608 c 0
 270 629 261 638 238 639 c 2
 235 639 l 1
296 451 m 1
 285 389 l 1
 103 389 l 1
 114 451 l 1
 296 451 l 1
214 638 m 2
 210 636 196 629 192 608 c 1
 192 604 l 1
 135 616 l 1
 135 619 l 1
 146 657 180 695 224 700 c 1
 228 700 l 1
 219 645 l 1
 217 638 l 1
 214 638 l 2
EndSplineSet
Validated: 33
EndChar

StartChar: uni00B3
Encoding: 179 179 219
GlifName: uni00B_3
Width: 247
VWidth: 0
GlyphClass: 2
Flags: HMW
LayerCount: 2
Back
Fore
SplineSet
188 623 m 1
 141 654 l 1
 144 657 l 1
 163 682 193 701 228 701 c 2
 231 701 l 1
 220 640 l 1
 217 640 l 2
 205 639 196 634 190 626 c 2
 188 623 l 1
209 452 m 2
 225 452 239 467 242 483 c 0
 246 507 242 516 192 516 c 2
 188 516 l 1
 199 577 l 1
 203 577 l 2
 254 577 261 588 265 612 c 0
 269 633 254 640 243 640 c 2
 238 640 l 1
 249 701 l 1
 252 701 l 2
 312 700 334 650 328 616 c 0
 321 578 306 557 291 547 c 1
 301 537 312 516 306 482 c 0
 296 426 236 392 200 392 c 2
 195 392 l 1
 206 452 l 1
 209 452 l 2
162 467 m 2
 166 459 172 455 184 454 c 2
 187 453 l 1
 176 392 l 1
 173 392 l 2
 138 392 115 406 105 436 c 1
 103 439 l 1
 161 470 l 1
 162 467 l 2
EndSplineSet
Validated: 33
EndChar

StartChar: uni00B9
Encoding: 185 185 220
GlifName: uni00B_9
Width: 186
VWidth: 0
GlyphClass: 2
Flags: HMW
LayerCount: 2
Back
Fore
SplineSet
201 610 m 1
 163 584 l 1
 179 673 l 1
 218 700 l 1
 284 700 l 1
 230 391 l 1
 162 391 l 1
 201 610 l 1
EndSplineSet
Validated: 1
EndChar

StartChar: v
Encoding: 118 118 221
GlifName: v
Width: 400
VWidth: 0
GlyphClass: 2
Flags: HMW
LayerCount: 2
Back
Fore
SplineSet
360 516 m 1
 491 515 l 1
 345 208 l 1
 333 208 l 1
 301 394 l 1
 360 516 l 1
174 0 m 1
 107 515 l 1
 242 516 l 1
 307 120 l 1
 243 0 l 1
 174 0 l 1
EndSplineSet
Validated: 1
EndChar

StartChar: w
Encoding: 119 119 222
GlifName: w
Width: 577
VWidth: 0
GlyphClass: 2
Flags: HMW
LayerCount: 2
Back
Fore
SplineSet
534 516 m 1
 660 515 l 1
 508 208 l 1
 500 208 l 1
 476 394 l 1
 534 516 l 1
348 0 m 1
 281 515 l 1
 419 516 l 1
 470 120 l 1
 412 0 l 1
 348 0 l 1
160 0 m 1
 99 515 l 1
 235 516 l 1
 282 120 l 1
 222 0 l 1
 160 0 l 1
EndSplineSet
Validated: 1
EndChar

StartChar: x
Encoding: 120 120 223
GlifName: x
Width: 381
VWidth: 0
GlyphClass: 2
Flags: HMW
LayerCount: 2
Back
Fore
SplineSet
178 262 m 1
 113 516 l 1
 238 516 l 1
 270 399 l 1
 343 515 l 1
 469 515 l 1
 315 262 l 1
 382 0 l 1
 257 0 l 1
 222 126 l 1
 143 0 l 1
 18 0 l 1
 178 262 l 1
EndSplineSet
Validated: 1
EndChar

StartChar: y
Encoding: 121 121 224
GlifName: y
Width: 383
VWidth: 0
GlyphClass: 2
Flags: HMW
LayerCount: 2
Back
Fore
SplineSet
342 515 m 1
 473 514 l 1
 316 208 l 1
 304 208 l 1
 282 393 l 1
 342 515 l 1
138 113 m 1
 91 514 l 1
 222 515 l 1
 246 327 l 2
 246 328 247 328 247 329 c 2
 272 111 l 1
 123 -182 l 1
 -3 -182 l 1
 138 113 l 1
EndSplineSet
Validated: 1
EndChar

StartChar: yen
Encoding: 165 165 227
GlifName: yen
Width: 542
VWidth: 0
GlyphClass: 2
Flags: HMW
LayerCount: 2
Back
Fore
SplineSet
196 698 m 1
 333 698 l 1
 359 485 l 1
 456 698 l 1
 593 698 l 1
 454 408 l 1
 564 408 l 1
 554 350 l 1
 427 350 l 1
 403 295 l 1
 544 295 l 1
 534 236 l 1
 382 236 l 1
 340 0 l 1
 203 0 l 1
 245 238 l 1
 92 238 l 1
 102 295 l 1
 245 295 l 1
 239 351 l 1
 112 351 l 1
 122 409 l 1
 234 409 l 1
 196 698 l 1
EndSplineSet
Validated: 1
EndChar

StartChar: z
Encoding: 122 122 228
GlifName: z
Width: 348
VWidth: 0
GlyphClass: 2
Flags: HMW
LayerCount: 2
Back
Fore
SplineSet
393 400 m 1
 190 118 l 1
 343 117 l 1
 322 0 l 1
 26 0 l 1
 46 116 l 1
 252 394 l 1
 95 394 l 1
 117 514 l 1
 413 514 l 1
 393 400 l 1
EndSplineSet
Validated: 1
EndChar

StartChar: zero
Encoding: 48 48 230
GlifName: zero
Width: 1024
VWidth: 0
GlyphClass: 2
Flags: HMW
LayerCount: 2
Back
Fore
SplineSet
587 698 m 1
 675 693 753 602 709 353 c 0
 657 60 532 3 465 0 c 1
 487 124 l 1
 544 137 566 248 582 339 c 0
 586 360 587 371 592 398 c 0
 603 461 616 560 565 573 c 1
 587 698 l 1
527 698 m 1
 505 573 l 1
 450 560 427 461 416 398 c 0
 411 371 410 360 406 339 c 0
 390 248 372 137 425 124 c 1
 403 0 l 1
 338 3 231 60 283 353 c 0
 327 602 437 693 527 698 c 1
EndSplineSet
Validated: 33
EndChar
